<?xml version="1.0" encoding="UTF-8" standalone="no"?>
<svg
   width="1281"
   height="712.43799"
   viewBox="-702 0 1281 712.4408"
   version="1.2"
   id="svg151"
   sodipodi:docname="compiler_pipeline_v1.svg"
   inkscape:version="1.3 (0e150ed, 2023-07-21)"
   xmlns:inkscape="http://www.inkscape.org/namespaces/inkscape"
   xmlns:sodipodi="http://sodipodi.sourceforge.net/DTD/sodipodi-0.dtd"
   xmlns="http://www.w3.org/2000/svg"
   xmlns:svg="http://www.w3.org/2000/svg"
   xmlns:rdf="http://www.w3.org/1999/02/22-rdf-syntax-ns#"
   xmlns:cc="http://creativecommons.org/ns#"
   xmlns:dc="http://purl.org/dc/elements/1.1/"><defs
   id="defs151" />
<sodipodi:namedview
   id="namedview151"
   pagecolor="#ffffff"
   bordercolor="#000000"
   borderopacity="0.25"
   inkscape:showpageshadow="2"
   inkscape:pageopacity="0.0"
   inkscape:pagecheckerboard="0"
   inkscape:deskcolor="#d1d1d1"
   showguides="true"
   inkscape:zoom="0.48234198"
   inkscape:cx="668.61276"
   inkscape:cy="397.02122"
   inkscape:window-width="1512"
   inkscape:window-height="840"
   inkscape:window-x="0"
   inkscape:window-y="38"
   inkscape:window-maximized="1"
   inkscape:current-layer="svg151" />
<title
   id="title1">Quick sheets</title>
\n<g
   id="g1"
   transform="matrix(0,0.98973203,-0.87303,0,862.53351,461.07449)">
  <path
     fill="#000000"
     d="m -92.2827,1627.76 c 0,0 0,0 0,0 6.1887,-0.85 12.4066,-1.52 18.5663,-2.56 0.2883,-0.05 0.4675,-0.4 0.5574,-0.68 0.1077,-0.33 0.1707,-0.74 0.0011,-1.05 -0.3014,-0.54 -0.7873,-0.99 -1.3158,-1.32 -0.294,-0.18 -0.6837,-0.13 -1.0298,-0.13 -1.9962,-0.04 -4.0046,-0.22 -5.9898,-0.01 -3.6841,0.4 -7.2764,1.48 -10.9653,1.83 -0.4077,0.04 -0.611,-0.63 -1.0151,-0.69 -1.3241,-0.22 -2.6898,-0.29 -4.0228,-0.13 -0.7307,0.08 -1.3111,0.85 -2.0458,0.82 -7.1847,-0.33 -14.3137,-1.48 -21.4937,-1.9 -20.476,-1.19 -40.967,-2.16 -61.464,-2.94 -5.328,-0.2 -10.669,-0.22 -15.996,0.02 -0.717,0.03 -1.287,0.78 -2.004,0.78 -0.714,0 -1.288,-0.71 -2,-0.77 -0.516,-0.04 -1.068,0.16 -1.482,0.47 -0.73,0.55 -1.809,1.11 -1.84,2.03 -0.033,0.97 1.03,1.66 1.689,2.37 0.135,0.14 0.39,0.08 0.588,0.08 1.024,-0.01 2.065,0.06 3.071,-0.13 0.703,-0.13 1.262,-0.8 1.978,-0.83 5.657,-0.25 11.329,-0.21 16.989,-0.01 4.112,0.15 8.19,0.84 12.299,1.04 16.051,0.77 32.126,1.01 48.172,1.89 7.176,0.4 14.293,1.63 21.4726,1.93 1.3815,0.06 2.6771,-0.85 4.0597,-0.85 0.7133,-0.01 1.2791,0.66 1.9741,0.82"
     id="path1" />
</g>
<g
   id="g2"
   transform="matrix(0,0.98973203,-0.87303,0,862.53351,461.07449)">
  <path
     fill="none"
     stroke="#000000"
     stroke-width="4"
     stroke-linecap="round"
     stroke-linejoin="round"
     d="m -202.418,1615.85 0.595,0.36 0.381,-0.26 -0.055,-1.45 -1.484,-9.9 -2.585,-23.82 -1.776,-21.82 -0.492,-16.83 -0.278,-57.35 -2.983,-56.11 -1.197,-49.56 -0.891,-11.27 -0.728,-3.02 -0.552,0.16 -0.177,-0.31 -0.15,0.24"
     id="path2" />
</g>
<g
   id="g3"
   transform="matrix(0,0.98973203,-0.87303,0,862.53351,461.07449)">
  <path
     fill="none"
     stroke="#000000"
     stroke-width="4"
     stroke-linecap="round"
     stroke-linejoin="round"
     d="m -94.4078,1587.37 1.5186,0.49 0.8681,-0.5 0.0855,-0.84 -0.4959,-1.69 -1.8494,-3.6 -3.2865,-4.2 -6.6276,-8.09 -3.328,-3.36 -5.941,-5.11 -6.097,-3.92 -17.686,-8.7 -6.145,-2.02 -5.603,-1.33 -7.078,-0.53 -3.508,0.38 -0.752,0.17 -2.138,1.59 -0.079,1.12 0.979,1.64 2.969,1.94 8.101,3.37 12.978,3.92 8.902,1.88 10.793,1.77 5.342,0.18 3.992,-0.86 2.705,-2.53 2.485,-4.09 0.59,0.13 0.034,-0.32 -0.607,-0.48"
     id="path3" />
</g>
<g
   id="g4"
   transform="matrix(0,0.98973203,-0.87303,0,862.53351,461.07449)">
  <path
     fill="none"
     stroke="#000000"
     stroke-width="4"
     stroke-linecap="round"
     stroke-linejoin="round"
     d="m -111.868,1541.58 0.061,-0.55 0.111,0.21 0.521,-0.26 0.377,-0.88 0.179,-3.29 -0.402,-3.29 -1.002,-2.83 -3.053,-5.39 -2.482,-3 -1.006,-0.66 -1.201,-0.14 -0.348,0.87 -0.157,-0.31 -0.802,0.06 -1.172,1.29 -0.371,-0.13 -0.665,3.83 0.142,3.01 0.719,2.97 1.168,1.72 6.759,5.4 4.272,1.65 3.444,0.6 3.111,0.03 1.661,-0.92 2.1283,-0.52 2.1275,-1.88 1.9281,-3.52 0.5692,-2.81 0.0522,-4.95 -0.9088,-3.14 -1.576,-1.89 -3.4615,-1.39"
     id="path4" />
</g>
<g
   id="g5"
   transform="matrix(0,0.98973203,-0.87303,0,862.53351,461.07449)">
  <path
     fill="none"
     stroke="#000000"
     stroke-width="4"
     stroke-linecap="round"
     stroke-linejoin="round"
     d="m -131.865,1493.17 0.309,-0.48 0.398,0.71 0.469,-0.22 4.198,2.02 4.231,1.45 2.78,1.78 3.022,0.93 7.55,4.28 13.6515,10.22 4.16,3.97 1.2715,0.65 1.6922,1.53 0.2673,0.99 -0.1053,-0.49 -0.5384,-0.34"
     id="path5" />
</g>
<g
   id="g6"
   transform="matrix(0,0.98973203,-0.87303,0,862.53351,461.07449)">
  <path
     fill="none"
     stroke="#000000"
     stroke-width="4"
     stroke-linecap="round"
     stroke-linejoin="round"
     d="m -107.292,1509.69 -8.928,0.45 -2.397,-0.3 1.976,-0.22 0.793,0.2 2.771,-1.73 1.317,-0.41 10.128,-8.83 1.9709,-2.15 1.9528,-1.02 7.9021,-5.7 2.1999,-1.92 1.9359,-2.16 0.7215,-1.36 0.1173,-0.99"
     id="path6" />
</g>
<g
   id="g7"
   transform="matrix(0,0.98973203,-0.87303,0,862.53351,461.07449)">
  <path
     fill="none"
     stroke="#000000"
     stroke-width="4"
     stroke-linecap="round"
     stroke-linejoin="round"
     d="m -110.08,1473.31 0.998,-0.86 0.135,-4.84 -0.569,-3.02 -2.298,-2.14 -0.932,0.29 -1.522,2.93 -0.701,1.94 -0.086,1.37 1.344,3.75 1.063,0.36 0.568,1.25 1.581,1.67 3.283,2.85 5.814,2.93 3.2344,0.19 2.2212,-0.87 1.1615,-1.1 0.6815,-1.37 0.4632,-5.68 -0.4495,-2.36 -1.2513,-3.23 -2.3137,-3.03 -0.927,-0.46 -3.0473,-2.65 -2.824,-1.16 -1.202,0.21"
     id="path7" />
</g>
<g
   id="g8"
   transform="matrix(0,0.98973203,-0.87303,0,862.53351,461.07449)">
  <path
     fill="none"
     stroke="#000000"
     stroke-width="4"
     stroke-linecap="round"
     stroke-linejoin="round"
     d="m -119.811,1452.37 -1.266,-0.44 -0.84,0.06 -0.544,-0.74 0.084,-0.35 4.042,-0.98 5.327,-2.18 4.865,-1.36 1.769,-1.2 4.374,-1.07 2.6544,-1.19 0.5299,0.37 0.3755,-0.34 -0.1909,-0.21 -0.2549,0.33 -3.008,-0.15 -3.927,-1.13 -14.684,-9.24 -3.378,-3.42 -1.944,-2.44 -0.688,-2.07 0.476,-1.81 0.595,-0.32"
     id="path8" />
</g>
<g
   id="g9"
   transform="matrix(0,0.98973203,-0.87303,0,862.53351,461.07449)">
  <path
     fill="none"
     stroke="#000000"
     stroke-width="4"
     stroke-linecap="round"
     stroke-linejoin="round"
     d="m -201.889,1363.62 -2.85,0.15 -2.711,-1.04 0.638,0.3 0.195,-0.24 -0.122,1.21 0.06,-1.59 0.105,0.3 2.342,0.34 5.318,-0.61 18.987,1.26 1.807,-0.41 1.928,0.03 1.889,0.57 9.324,1.45 9.116,2.15 1.783,0.99 1.806,0.52 1.612,-0.22 7.15,0.79 4.996,-0.5 3.488,-0.89 4.449,-0.11 2.241,-0.37 17.744,1.52 3.433,0.71 3.474,-0.04 1.162,0.61 2.6362,-0.56 0.5028,-0.39 2.1748,0.47 0.8905,-0.49 0.2838,0.39 2.3498,0.98 1.6037,-0.04 0.6176,0.32 1.9744,-0.62 3.4404,-0.21 0.4432,0.21 0.6328,-0.41 1.103,-0.03 0.4762,0.48 0.1983,-0.31 0.7159,-0.1 0.511,0.76 1.42,-0.56 0.5893,-0.62 1.1915,0.66 0.5354,-0.66 1.8226,1.04 0.7541,-0.26 0.2041,0.23 0.3083,-0.69 1.0252,0.75 0.7108,0.09 0.3818,-0.35 0.8092,1.1 0.6336,-0.34 0.3542,0.97 1.2718,-2.85 -0.0031,0.3 0.6223,0.03 0.5719,0.51 1.0015,-0.03 0.3326,0.41 0.4169,-0.51 -0.1564,-0.66 -0.3394,0.11"
     id="path9" />
</g>
<g
   id="g10"
   transform="matrix(0,0.98973203,-0.87303,0,862.53351,461.07449)">
  <path
     fill="none"
     stroke="#000000"
     stroke-width="4"
     stroke-linecap="round"
     stroke-linejoin="round"
     d="m -50.2211,1608.83 0.0587,-34.88 0.1505,-6.8 1.7454,-22.41 0.2736,-17.03 -1.5312,-39.58 -0.3496,-41.38 -1.2455,-21.95 -3.009,-36.72 -0.3807,-12.13 0.8351,2.15"
     id="path10" />
</g>
<g
   id="g11"
   transform="matrix(0,0.98973203,-0.87303,0,862.53351,461.07449)">
  <path
     fill="none"
     stroke="#000000"
     stroke-width="4"
     stroke-linecap="round"
     stroke-linejoin="round"
     d="m -131.71,1379.69 -0.079,3.67 -0.221,-2.03 0.158,-6.08 -0.313,-13.86 -2.789,-36.01 -0.629,-20.86 0.257,-6.98 0.728,-5.14 -0.225,1.79 0.185,2.62"
     id="path11" />
</g>
<g
   id="g12"
   transform="matrix(0,0.98973203,-0.87303,0,862.53351,461.07449)">
  <path
     fill="none"
     stroke="#000000"
     stroke-width="4"
     stroke-linecap="round"
     stroke-linejoin="round"
     d="m -140.089,1302.46 -0.383,0.57 -1.786,1.03 -0.363,0.81 -0.553,-0.11 -0.006,-0.47 0.312,-0.93 0.171,0.39 0.399,-0.18 0.159,0.41 1.508,-3.47 2.787,-8.57 1.646,-6.54 0.084,1.69 2.15,3.99 3.608,8.99"
     id="path12" />
</g>
<g
   id="g13"
   transform="matrix(0,0.98973203,-0.87303,0,862.53351,461.07449)">
  <path
     fill="none"
     stroke="#000000"
     stroke-width="4"
     stroke-linecap="round"
     stroke-linejoin="round"
     d="m -199.02,1268 -5.635,0.34 -1.818,-0.39 -0.732,0.35 -5.24,0.4 -0.4,0.44 -0.017,-0.61 0.22,0.48 0.434,-0.89 0.535,0.56 9.008,-2.51 1.284,0.37 1.421,-0.07 1.351,-0.7 6.172,-1.3 11.672,-1.26 2.285,-0.71 2.513,-0.31 2.395,0.34 10.25,0.18 5.371,-0.22 10.727,1.02 5.028,1.13 13.755,1.74 10.722,2.22 13.816,1.74 28.9037,1.88 1.2018,0.31 1.0662,0.75 1.0963,0.16 1.863,-0.43 2.7155,0.26 1.6293,-0.4 0.3549,-0.71 0.1145,0.38 -1.1171,0.26 0.593,0.12 0.0714,0.43 -1.8131,1.56"
     id="path13" />
</g>
<g
   id="g14"
   transform="matrix(0,0.98973203,-0.87303,0,862.53351,461.07449)">
  <path
     fill="none"
     stroke="#000000"
     stroke-width="4"
     stroke-linecap="round"
     stroke-linejoin="round"
     d="m -145.336,1235.21 -2.093,0.33 -3.039,-0.58 -0.51,-0.36 -1.5,0.13 -0.062,0.35 0.163,-0.29 0.516,0.04 0.299,-0.53 0.048,0.34 0.628,0.31 14.328,-0.48 7.926,0.02 3.024,0.38 10.394,-0.52 4.554,0.07 1.783,-0.47 4.478,0.94 0.134,0.42 -0.404,-0.49 -1.055,-0.17"
     id="path14" />
</g>
<g
   id="g15"
   transform="matrix(0,0.98973203,-0.87303,0,862.53351,461.07449)">
  <path
     fill="none"
     stroke="#000000"
     stroke-width="4"
     stroke-linecap="round"
     stroke-linejoin="round"
     d="m -128.602,1238.21 -1.468,0.12 -2.932,-0.67 -1.558,0.52 -4.527,0.26 -7.759,-0.73 -1.913,0.08 -5.23,-3.07 -2.349,-2.02 -1.931,-2.22 -1.441,-2.08 -1.181,-3.99 -0.356,-2.83 0.093,-3.57 1.798,-4.8 1.625,-2.44 1.008,-1.27 2.752,-0.54 1.803,1.46 2.159,2.4 2.53,3.77 3.472,8.18 3.014,9.47 0.596,-2.1"
     id="path15" />
</g>
<g
   id="g16"
   transform="matrix(0,0.98973203,-0.87303,0,862.53351,461.07449)">
  <path
     fill="none"
     stroke="#000000"
     stroke-width="4"
     stroke-linecap="round"
     stroke-linejoin="round"
     d="m -140.538,1193.49 -0.6,2.44 -0.017,1.44 0.504,1.77 1.636,2.49 2.868,2.41 3.636,1.62 2.072,0.13 0.58,0.31 1.593,0.06 0.953,-0.62 1.581,-0.36 0.874,-0.76 0.338,-0.89 -0.14,-3.91 -0.97,-2.75 -1.512,-1.95 -1.46,-1.25 -6.387,-2.89 -2.68,-0.17 -0.815,0.2 -0.204,0.46 -0.566,0.19 0.626,0.01 0.384,-0.66 0.092,0.3 1.629,0.53 2.595,-0.39 1.45,0.19 2.8,-1.04 1.197,-0.9 1.146,-0.31 1.534,-0.94 1.213,-1.1 0.884,-1.55 -0.027,-1.2 -0.515,-1.3 -1.145,-0.51"
     id="path16" />
</g>
<g
   id="g17"
   transform="matrix(0,0.98973203,-0.87303,0,862.53351,461.07449)">
  <path
     fill="none"
     stroke="#000000"
     stroke-width="4"
     stroke-linecap="round"
     stroke-linejoin="round"
     d="m -136.814,1175.41 -0.092,-0.27 -0.157,0.3 -2.324,0.73 -1.601,-0.9 -0.436,-0.53 0.217,-0.52 0.395,0.72 -0.08,0.57 0.973,-0.69 2.842,-0.78 6.872,-1.27 9.267,-1.15 4.937,0.02 2.323,-0.33 0.573,-0.44 -0.244,-0.97 -0.62,0.66 -0.301,-0.44 -0.927,1.11 -0.229,-0.34 -1.233,-0.16 -1.032,0.25 -3.484,-0.86 -1.711,-0.91 -3.497,-0.6 -4.685,-2.21 -3.314,-2.15 -3.245,-2.72 -0.86,-1.75 -0.276,0.01 -0.171,-2.79 0.218,-1.49"
     id="path17" />
</g>
<g
   id="g18"
   transform="matrix(0,0.98973203,-0.87303,0,862.53351,461.07449)">
  <path
     fill="none"
     stroke="#000000"
     stroke-width="4"
     stroke-linecap="round"
     stroke-linejoin="round"
     d="m -139.53,1132.67 -0.245,0.78 0.083,-0.4 0.145,0.51 0.209,-0.42 0.289,0.6 0.46,-0.09 2.35,3.57 3.066,3.15 1.159,1.77 2.92,3.02 0.927,0.51 0.644,0.05 0.732,-2.17 1.323,-2.32 1.9,-2.47 1.565,-1.44 1.322,-1.12 2.022,-0.63 1.085,-0.79 2.188,-0.82 1.149,-0.04 1.498,0.48 4.034,4.02 0.91,1.86 0.02,1.1 -0.362,1.2 -0.986,0.37"
     id="path18" />
</g>
<g
   id="g19"
   transform="matrix(0,0.98973203,-0.87303,0,862.53351,461.07449)">
  <path
     fill="none"
     stroke="#000000"
     stroke-width="4"
     stroke-linecap="round"
     stroke-linejoin="round"
     d="m -126.306,1122.74 1.029,-0.78 0.277,0.11 0.805,-2.25 -0.05,-4.89 -1.555,-3.59 -1.128,-1.86 -0.252,0.05 -0.398,-1.16 -1.192,-0.97 -0.439,0.15 -0.258,-0.24 -0.422,1.49 -1.412,2.78 -0.044,1.45 0.882,2.94 2.368,3.36 5.765,5.24 4.544,2.4 2.007,0.18 0.889,0.61 3.253,0.56 2.437,-1.02 0.66,-1.04 0.161,-1.06 -0.305,-4.09 -2.042,-4.85 -3.932,-6.67"
     id="path19" />
</g>
<g
   id="g20"
   transform="matrix(0,0.98973203,-0.87303,0,862.53351,461.07449)">
  <path
     fill="none"
     stroke="#000000"
     stroke-width="4"
     stroke-linecap="round"
     stroke-linejoin="round"
     d="m -133.21,1084.43 0.344,0.25 0.932,-0.3 0.859,0.28 0.983,-0.7 8.633,-3.01 3.359,-0.04 1.517,0.79 0.391,0.88 -0.223,0.77 -0.521,0.43 -1.608,0.39 -1.216,-0.67 -0.868,-1 -1.873,-0.98 -3.479,-3.29 -3.095,-4.45 -1.478,-5.26 -0.049,-1.09 0.578,-2.36"
     id="path20" />
</g>
<g
   id="g21"
   transform="matrix(0,0.98973203,-0.87303,0,862.53351,461.07449)">
  <path
     fill="none"
     stroke="#000000"
     stroke-width="4"
     stroke-linecap="round"
     stroke-linejoin="round"
     d="m -206.153,1259.52 -0.193,0.55 -0.097,-0.29 -0.194,0.29 -0.166,-0.44 -0.074,0.45 0.26,0.44 0.114,-0.38 0.192,-13.13 1.61,-22.68 0.89,-31.49 1.393,-19.13 2.221,-82.34 -0.424,-24.66 -1.906,-23.52 0.159,-0.96 0.491,-0.2 0.265,-0.82 0.079,0.24 1.289,0.04"
     id="path21" />
</g>
<g
   id="g22"
   transform="matrix(0,0.98973203,-0.87303,0,862.53351,461.07449)">
  <path
     fill="none"
     stroke="#000000"
     stroke-width="4"
     stroke-linecap="round"
     stroke-linejoin="round"
     d="m -68.0128,1264 -1.0545,2.31 1.1351,-0.66 0.7367,0.15 0.0439,0.5 0.0392,-0.23 -0.7457,-8.42 -0.3659,-9.07 -0.2641,-16.96 -0.1388,-39.62 0.5773,-55.7 -0.9585,-58.17 0.5735,-18.45 1.7362,-15.96 -0.2082,-1.78 0.1354,-0.28 0.1143,0.37"
     id="path22" />
</g>
<g
   id="g23"
   transform="matrix(0,0.98973203,-0.87303,0,862.53351,461.07449)">
  <path
     fill="none"
     stroke="#000000"
     stroke-width="4"
     stroke-linecap="round"
     stroke-linejoin="round"
     d="m -185.507,1021.66 -0.857,0.39 -0.754,-0.6 -0.586,0.8 -1.976,1.05 -0.473,0.83"
     id="path23" />
</g>
<g
   id="g24"
   transform="matrix(0,0.98973203,-0.87303,0,862.53351,461.07449)">
  <path
     fill="none"
     stroke="#000000"
     stroke-width="4"
     stroke-linecap="round"
     stroke-linejoin="round"
     d="m -196.771,1029.23 -3.058,-0.28 -0.173,-0.24 -0.975,0.76 -1.292,-1.2 -0.914,0.16 -0.409,-0.35 -0.821,0.4 -0.104,0.41 0.241,-0.35 0.501,0.23 0.307,-0.44 1.048,0.59 1.861,-0.12 1.073,0.67 0.55,-0.29 4.091,-0.31 3.638,0.63 1.093,-0.37 1.204,0.1 1.108,0.59 10.018,1.64 22.692,1.97 19.033,0.01 17.378,-0.99 7.603,-0.82 14.2551,0.78 2.6532,0.54 6.4755,-0.05 9.8656,0.72 10.7305,1.95 3.642,0.96 0.8189,-0.19 0.1939,0.6 0.0192,-0.36 -0.937,-0.5 -0.1105,-0.69 0.5064,0.97 -0.4155,-0.31 -0.5227,0.38"
     id="path24" />
</g>
<g
   id="g25"
   transform="matrix(0,0.98973203,-0.87303,0,862.53351,461.07449)">
  <path
     fill="none"
     stroke="#000000"
     stroke-width="4"
     stroke-linecap="round"
     stroke-linejoin="round"
     d="m -131.833,1033.45 0.193,0.39 -0.517,0.41 -0.16,1.42 0.088,-0.96 -0.196,0.19 0.191,2.94 0.536,1.44 -0.479,-1.27 0.981,-9.76 -0.418,-6.25 -1.764,-15.64 -0.419,-20.668 -0.713,-13.796 0.251,-3.102 -0.084,1.073 -0.186,-0.928 -0.774,1.494 -0.52,-1.259 -2.189,-1.561 -1.155,1.143 -0.842,0.066 -0.462,0.437 -1.693,-0.275 -1.679,0.596 -0.556,-0.254 -1.364,0.908 0.095,0.704 0.034,-0.329 -0.21,0.049 0.62,3.847 0.153,-2.26 7.285,-7.199 1.629,-2.623 -0.253,1.305 0.17,-0.4 0.364,0.578 0.271,-0.303 1.337,1.797 2.63,2.069 2.27,0.922 0.419,0.452 0.539,-0.176 0.024,-0.383 -0.434,0.008 -0.194,0.9"
     id="path25" />
</g>
<g
   id="g26"
   transform="matrix(0,0.98973203,-0.87303,0,862.53351,461.07449)">
  <path
     fill="none"
     stroke="#000000"
     stroke-width="4"
     stroke-linecap="round"
     stroke-linejoin="round"
     d="m -189.128,1031.93 -1.71,0.68 -3.557,2.4 -0.249,-0.34 -0.719,0.24 -0.57,-0.55 -0.25,0.24 -1.496,-2.84 -1.232,-0.46"
     id="path26" />
</g>
<g
   id="g27"
   transform="matrix(0,0.98973203,-0.87303,0,862.53351,461.07449)">
  <path
     fill="none"
     stroke="#000000"
     stroke-width="4"
     stroke-linecap="round"
     stroke-linejoin="round"
     d="m -200.712,1030.51 -1.61,-0.62 -0.157,-0.87 -0.211,0.21 -0.101,-0.36 -0.062,0.65 0.494,0.62 0.351,6.54 1.912,10.26"
     id="path27" />
</g>
<g
   id="g28"
   transform="matrix(0,0.98973203,-0.87303,0,862.53351,461.07449)">
  <path
     fill="none"
     stroke="#000000"
     stroke-width="4"
     stroke-linecap="round"
     stroke-linejoin="round"
     d="m -173.718,944.688 -1.675,0.394 -3.268,-0.554 -1.62,-0.769 -3.307,0.189 -0.88,0.524 -0.791,1.314 -0.481,0.212 -1.195,-0.009 -3.061,-1.247 -1.48,-0.224 -3.283,-0.282 -0.177,0.24 0.666,0.33 0.094,-0.201 0.045,0.426 -0.136,-0.741 0.476,0.947 0.352,-0.357 0.901,0.445 1.773,-0.389 12.65,0.906 11.641,0.291 30.597,2.512 6.339,1.036 27.118,1.123 7.7529,-0.325 13.2813,1.466 11.2196,-0.523 1.2794,0.244 0.3178,0.511 0.2043,-0.096 -0.1921,-0.235 -0.3985,-0.096 -0.1422,0.343 -0.381,-0.58 -0.4996,0.225 -2.6197,-0.891"
     id="path28" />
</g>
<g
   id="g29"
   transform="matrix(0,0.98973203,-0.87303,0,862.53351,461.07449)">
  <path
     fill="none"
     stroke="#000000"
     stroke-width="4"
     stroke-linecap="round"
     stroke-linejoin="round"
     d="m -136.69,886.223 -4.457,-3.637 -0.804,0.104 -0.417,-0.259 -1.058,0.883 -0.971,1.915 -0.004,1.998 0.462,1.514 2.066,4.056 1.91,2.836 3.287,3.93 4.676,1.894 2.599,0.218 1.75,-0.165 4.369,-1.223 5.117,-2.697 2.697,-2.193 1.827,-2.17 5.86,-8.88 0.677,-0.378 1.173,0.254 5.133,5.797 2.1729,3.385 2.0542,6.152 0.0017,1.985 -0.6943,0.946"
     id="path29" />
</g>
<g
   id="g30"
   transform="matrix(0,0.98973203,-0.87303,0,862.53351,461.07449)">
  <path
     fill="none"
     stroke="#000000"
     stroke-width="4"
     stroke-linecap="round"
     stroke-linejoin="round"
     d="m -119.373,873.592 1.639,-1.951 1.34,-3.058 0.55,-2.75 -0.068,-2.19 -1.111,-3.596 -1.228,-1.76 -2.347,0.985 -1.358,1.208 -1.447,1.754 -0.429,1.926 0.148,0.907 1.571,2.651 6.568,4.845 5.295,1.361 1.742,-0.398 1.734,-1.226 0.975,-1.301 0.908,-2.259 0.193,-4.143 -0.378,-2.001 -1.239,-3.376"
     id="path30" />
</g>
<g
   id="g31"
   transform="matrix(0,0.98973203,-0.87303,0,862.53351,461.07449)">
  <path
     fill="none"
     stroke="#000000"
     stroke-width="4"
     stroke-linecap="round"
     stroke-linejoin="round"
     d="m -121.602,846.761 -2.34,-0.196 0.334,-0.072 0.188,0.41 0.301,-0.384 2.857,-1.23 1.322,-1.355 0.638,0.075 6.371,-2.965 0.96,0.289 2.062,-1.35 -0.072,-0.517 -0.072,0.315 -0.942,0.373 -1.763,-0.677 -0.873,0.12 -2.896,-1.681 -1.729,-1.287 -1.395,-1.62 -0.752,-0.331 -1.007,-1.412 0.096,-0.187 0.256,0.297 4.275,-2.079 3.219,-0.986 -1.221,0.106 -0.161,0.435 -2.417,-3.373 -0.577,-1.574 -0.315,0.032 -2.39,-2.456 -0.289,0.225 0.294,-1.534 0.963,-10e-4 0.713,-0.745 8.702,-3.215 1.372,-1.072 -0.016,-0.892 -0.61,-1.263"
     id="path31" />
</g>
<g
   id="g32"
   transform="matrix(0,0.98973203,-0.87303,0,862.53351,461.07449)">
  <path
     fill="none"
     stroke="#000000"
     stroke-width="4"
     stroke-linecap="round"
     stroke-linejoin="round"
     d="m -113.936,786.674 -1.22,0.136 -0.895,-0.35 -0.327,0.268 0.886,1.929 4.903,6.394 1.285,0.904 2.355,3.892 2.069,2.021 1.794,1.159 0.542,-1.246 0.007,-2.078 -0.959,-5.175 -1.345,-3.939 -2.05,-3.458 -1.706,-1.778 -1.387,-0.849 -1.734,-0.232 -0.17,-0.449 -0.111,0.212 1.132,0.49 6.499,-0.98 1.972,-0.739 0.861,-0.88 0.345,-0.862 -1.093,-1.545"
     id="path32" />
</g>
<g
   id="g33"
   transform="matrix(0,0.98973203,-0.87303,0,862.53351,461.07449)">
  <path
     fill="none"
     stroke="#000000"
     stroke-width="4"
     stroke-linecap="round"
     stroke-linejoin="round"
     d="m -116.123,774.978 0.909,0.091 1.528,-0.868 1.051,-0.164 3.023,-2.048 4.827,-2.426 3.133,-0.676 -0.714,0.25 -0.325,-0.228 -0.651,0.879 -0.288,-0.468 -1.3,-0.164 -1.738,-0.808 -0.961,-1.14 -1.348,-0.002 -3.548,-1.704 -0.859,0.123 -1.91,-2.452 0.167,-0.467 0.767,0.359 2.006,-0.684 2.022,-1.079 0.831,-0.784 1.656,-0.556 0.672,0.195 2.054,-1.517 0.034,-0.748 -0.245,0.335 -0.24,-1.109"
     id="path33" />
</g>
<g
   id="g34"
   transform="matrix(0,0.98973203,-0.87303,0,862.53351,461.07449)">
  <path
     fill="none"
     stroke="#000000"
     stroke-width="4"
     stroke-linecap="round"
     stroke-linejoin="round"
     d="m -139.532,742.174 -1.421,0.36 -0.625,-0.17 0.397,0.613 1.073,-0.803 3.335,-1.164 2.005,-1.178 1.147,0.068 6.457,-1.324 7.682,-0.882 3.198,-0.79 16.219,-1.937 5.1058,-0.304 0.648,-0.275 -0.2042,0.397 -0.4395,-0.44 -0.3704,0.361 -1.206,-1.644 -0.3631,0.224"
     id="path34" />
</g>
<g
   id="g35"
   transform="matrix(0,0.98973203,-0.87303,0,862.53351,461.07449)">
  <path
     fill="none"
     stroke="#000000"
     stroke-width="4"
     stroke-linecap="round"
     stroke-linejoin="round"
     d="m -119.782,727.301 -0.312,1.479 0.156,0.304 0.106,-0.476 0.485,3.332 1.376,5.461 1.012,6.794 0.051,5.001"
     id="path35" />
</g>
<g
   id="g36"
   transform="matrix(0,0.98973203,-0.87303,0,862.53351,461.07449)">
  <path
     fill="none"
     stroke="#000000"
     stroke-width="4"
     stroke-linecap="round"
     stroke-linejoin="round"
     d="m -113.014,716.944 0.284,0.129 0.082,-0.847 0.143,0.334 0.516,-0.18 2.241,-1.19 0.839,-1.101 3.789,-1.309 0.497,0.123 0.815,-0.488 0.072,0.281"
     id="path36" />
</g>
<g
   id="g37"
   transform="matrix(0,0.98973203,-0.87303,0,862.53351,461.07449)">
  <path
     fill="none"
     stroke="#000000"
     stroke-width="4"
     stroke-linecap="round"
     stroke-linejoin="round"
     d="m -129.263,711.087 -1.149,-0.601 -0.378,0.124 -0.027,-0.425 0.495,1.435 0.078,-1.062"
     id="path37" />
</g>
<g
   id="g38"
   transform="matrix(0,0.98973203,-0.87303,0,862.53351,461.07449)">
  <path
     fill="none"
     stroke="#000000"
     stroke-width="4"
     stroke-linecap="round"
     stroke-linejoin="round"
     d="m -116.783,684.802 -0.768,3.653 0.008,2.57 0.357,1.711 1.168,2.172 6.592,6.611 2.586,0.099 1.422,-1.048 1.234,-2.203 0.812,-4.046 -0.102,-4.911 -1.723,-8.306"
     id="path38" />
</g>
<g
   id="g39"
   transform="matrix(0,0.98973203,-0.87303,0,862.53351,461.07449)">
  <path
     fill="#000000"
     d="m -105.047,656.52 c 0,0 0,0 0,0 0.616,-0.673 1.508,-1.172 1.846,-2.019 0.145,-0.363 -0.601,-0.587 -0.652,-0.975 -0.217,-1.661 -0.3,-3.356 -0.132,-5.023 0.072,-0.712 0.668,-1.281 0.837,-1.977 0.159,-0.656 0.167,-1.346 0.133,-2.02 -0.023,-0.448 -0.037,-0.949 -0.302,-1.311 -0.59,-0.804 -1.278,-1.613 -2.17,-2.06 -0.283,-0.142 -0.62,0.31 -0.732,0.606 -0.699,1.849 -1.356,3.742 -1.65,5.697 -0.3,1.998 -0.333,4.05 -0.116,6.058 0.08,0.741 0.539,1.41 0.986,2.004 0.399,0.53 0.916,0.995 1.503,1.302 m -50.707,-124.11 c 0,0 0,0 0,0 1.018,-0.723 2.41,-1.099 3.053,-2.168 0.411,-0.682 0.406,-2.045 -0.322,-2.367 -1.541,-0.68 -3.404,-0.349 -5.054,-0.008 -0.612,0.126 -1.097,0.743 -1.325,1.325 -0.25,0.637 -0.189,1.395 0,2.052 0.12,0.419 0.499,0.748 0.87,0.977 0.441,0.27 0.963,0.432 1.479,0.467 m 30.263,-6.26 c 0,0 0,0 0,0 4.155,-1.488 8.361,-2.838 12.463,-4.463 0.297,-0.118 0.575,-0.409 0.627,-0.724 0.164,-1.003 0.577,-2.219 -0.008,-3.051 -0.459,-0.651 -1.59,-0.491 -2.369,-0.323 -0.544,0.117 -0.741,0.883 -1.253,1.102 -3.074,1.318 -6.382,2.062 -9.415,3.472 -0.75,0.348 -1.468,0.963 -1.777,1.73 -0.198,0.494 0.144,1.105 0.468,1.527"
     id="path39" />
</g>
<g
   id="g40"
   transform="matrix(0,0.98973203,-0.87303,0,862.53351,461.07449)">
  <path
     fill="none"
     stroke="#000000"
     stroke-width="4"
     stroke-linecap="round"
     stroke-linejoin="round"
     d="m -128.561,508.971 -0.864,0.865 -0.872,0.045 -0.591,0.534 3.44,-0.288 3.917,-0.779 2.094,-0.839 0.379,-1.33 -0.748,-2.796 -1.796,-2.963 -1.549,-1.526 -1.914,-1.222 -1.066,-0.168 -0.357,0.426 -0.716,-0.394 -0.219,0.155 -0.102,-0.756 0.313,0.41 0.106,-0.432 0.066,0.988 1.762,-0.208 3.873,-1.095 6.415,-1.107 10.052,-3.785 4.841,-0.38 1.761,0.185 3.0351,1.844 1.1444,2.288 0.6112,1.647 1.3461,6.582 0.0448,3.761 -0.4155,1.92 -1.5052,1.124 -2.4732,0.936 -5.1757,-0.206 -5.939,-2.081 -1.748,-1.069"
     id="path40" />
</g>
<g
   id="g41"
   transform="matrix(0,0.98973203,-0.87303,0,862.53351,461.07449)">
  <path
     fill="none"
     stroke="#000000"
     stroke-width="4"
     stroke-linecap="round"
     stroke-linejoin="round"
     d="m -131.999,476.713 -0.689,1.271 0.51,-0.583 3.796,5.876 3.661,3.421 0.293,-0.307 0.344,-2.681 1.21,-4.424 0.859,-2.274 1.098,-1.913 2.867,-2.726 1.453,-0.239 1.904,0.151 5.164,5.433 1.811,2.384 1.004,1.909"
     id="path41" />
</g>
<g
   id="g42"
   transform="matrix(0,0.98973203,-0.87303,0,862.53351,461.07449)">
  <path
     fill="#000000"
     d="m -120.497,463.863 c 0,0 0,0 0,0 0.796,-0.578 1.751,-0.984 2.389,-1.733 0.243,-0.286 0.351,-0.911 0.042,-1.124 -1.303,-0.902 -2.859,-1.398 -4.372,-1.872 -0.539,-0.169 -1.23,-0.351 -1.695,-0.03 -0.797,0.551 -1.284,1.486 -1.688,2.366 -0.09,0.196 0.165,0.436 0.352,0.541 1.259,0.706 2.562,1.349 3.915,1.853 m -14.486,-1.341 c 0,0 0,0 0,0 0.513,-0.513 1.104,-0.959 1.54,-1.54 0.219,-0.292 0.651,-0.774 0.386,-1.025 -0.919,-0.871 -2.091,-1.9 -3.353,-1.787 -1.098,0.099 -1.738,1.402 -2.375,2.302 -0.203,0.287 -0.17,0.747 0,1.054 0.301,0.545 0.714,1.166 1.316,1.324"
     id="path42" />
</g>
<g
   id="g43"
   transform="matrix(0,0.98973203,-0.87303,0,862.53351,461.07449)">
  <path
     fill="none"
     stroke="#000000"
     stroke-width="4"
     stroke-linecap="round"
     stroke-linejoin="round"
     d="m -197.751,436.739 0.201,-0.444 -0.236,-1.422 -0.117,0.917 0.68,6.534 1.265,26.435 -0.022,23.907 0.55,18.382 -0.093,34.41 -1.357,23.623 -3.541,45.261 -1.263,50.103 -1.042,25.726 -1.219,23.506 -2.42,32.19 -0.954,18.268 -0.39,28.66 -0.857,15.312 -0.666,30.228 0.822,17.087 1.443,18.733 0.376,18.17 -0.674,19.894 0.266,19.434 -0.833,5.644 -0.672,1.035 -0.34,-1.254"
     id="path43" />
</g>
<g
   id="g44"
   transform="matrix(0,0.98973203,-0.87303,0,862.53351,461.07449)">
  <path
     fill="#000000"
     d="m -63.0411,934.523 c 0,0 0,0 0,0 0.2975,-0.331 0.6939,-0.594 0.8926,-0.992 0.1545,-0.31 0.2255,-0.703 0.1177,-1.032 -0.2636,-0.804 -0.9635,-1.426 -1.1908,-2.241 -0.8328,-2.986 -1.5997,-6.011 -1.9694,-9.089 -1.2248,-10.197 -2.4854,-20.417 -2.808,-30.682 -3.6107,-114.906 -5.596,-229.858 -8.9901,-344.771 -0.2686,-9.095 -1.6282,-18.132 -1.9972,-27.223 -0.2972,-7.323 -0.5858,-14.681 1e-4,-21.986 1.0745,-13.398 3.6681,-26.637 4.9724,-40.014 0.3553,-3.645 0.1615,-7.328 0,-10.986 -0.5007,-11.344 -1.4998,-22.662 -1.9862,-34.007 -0.1712,-3.994 -0.4,-8.017 0.014,-11.994 0.2149,-2.065 1.4097,-3.917 1.8535,-5.945 0.218,-0.997 0.1952,-2.041 0.1167,-3.057 -0.0364,-0.473 0.001,-1.222 -0.4564,-1.347 -1.6156,-0.439 -3.3512,-0.267 -5.021,-0.143 -11.4597,0.849 -22.9248,1.714 -34.3368,3.059 -1.135,0.133 -2.375,0.516 -3.148,1.357 -0.366,0.398 0.197,1.087 0.475,1.55 0.225,0.375 0.587,0.676 0.977,0.871 0.309,0.155 0.684,0.16 1.029,0.134 11.659,-0.873 23.2791,-2.339 34.9602,-2.827 0.4805,-0.02 0.4779,0.866 0.5206,1.345 0.0894,1.005 0.0601,2.033 -0.1317,3.023 -0.1361,0.703 -0.7934,1.263 -0.837,1.978 -0.2433,3.991 -0.0482,7.997 -0.0151,11.996 0.0111,1.343 -0.0695,2.701 0.1479,4.026 0.1158,0.706 0.7386,1.269 0.8369,1.977 0.1857,1.339 0.5551,2.822 -5e-4,4.054 -0.5155,1.143 -2.5449,1.188 -2.9053,2.389 -0.7239,2.412 -0.2786,5.044 -0.079,7.554 0.7705,9.689 2.1826,19.32 2.9862,29.007 0.1926,2.321 0.2626,4.672 0,6.986 -1.0636,9.371 -3.24,18.611 -3.9724,28.014 -0.595,7.639 -0.3046,15.33 -1e-4,22.986 0.3617,9.092 1.7286,18.128 1.9972,27.223 3.3941,114.913 5.3795,229.865 8.9902,344.771 0.3225,10.265 1.5747,20.486 2.8076,30.682 0.3806,3.147 1.6178,6.148 2.0263,9.292 0.0526,0.405 -0.598,0.615 -0.6871,1.013 -0.1494,0.667 -0.2489,1.415 0.0011,2.052 0.2282,0.581 0.752,1.076 1.3246,1.325 0.6194,0.27 1.3497,0.196 2.0223,0.133 M -200.171,415.55 c 0,0 0,0 0,0 0.008,-0.69 0.153,-1.392 0.024,-2.07 -0.06,-0.315 -0.837,-0.611 -0.564,-0.778 1.517,-0.924 3.225,-1.607 4.975,-1.908 16.147,-2.771 32.447,-4.581 48.605,-7.288 2.842,-0.476 5.611,-1.344 8.345,-2.253 0.304,-0.101 0.521,-0.426 0.627,-0.728 0.117,-0.331 0.171,-0.746 0.001,-1.052 -0.301,-0.545 -0.72,-1.143 -1.316,-1.324 -0.984,-0.3 -2.074,-0.199 -3.087,-0.017 -2.909,0.526 -5.69,1.663 -8.61,2.129 -15.231,2.435 -30.552,4.28 -45.806,6.57 -1.067,0.16 -2.12,0.428 -3.14,0.778 -2.733,0.937 -5.472,1.885 -8.104,3.079 -0.963,0.437 -2.026,0.913 -2.62,1.787 -0.295,0.434 -0.001,1.156 0.364,1.532 0.804,0.828 1.796,1.607 2.923,1.855 1.97,0.434 4.035,0.208 6.05,0.122"
     id="path44" />
</g>
<g
   id="g45"
   transform="matrix(0,0.98973203,-0.87303,0,862.53351,461.07449)">
  <path
     fill="none"
     stroke="#000000"
     stroke-width="4"
     stroke-linecap="round"
     stroke-linejoin="round"
     d="m -206.337,401.864 -0.441,0.188 -0.167,-0.342 -0.211,0.574 0.352,0.577 0.431,-0.181 1.569,14.946 3.463,21.215"
     id="path45" />
</g>
<g
   id="g46"
   transform="matrix(0,0.98973203,-0.87303,0,862.53351,461.07449)">
  <path
     fill="none"
     stroke="#000000"
     stroke-width="4"
     stroke-linecap="round"
     stroke-linejoin="round"
     d="m -206.312,941.758 -2.33,0.989 -3.079,0.407 -2.157,-0.098 -0.78,-0.532 -1.119,0.285 -0.47,-0.599 0.889,0.884 0.266,-0.388 2.941,-0.741 6.808,-1.22 13.37,-1.197 40.643,-0.86 5.783,-0.877 10.009,-2.542"
     id="path46" />
</g>
<g
   id="g47"
   transform="matrix(0,0.98973203,-0.87303,0,862.53351,461.07449)">
  <path
     fill="none"
     stroke="#000000"
     stroke-width="4"
     stroke-linecap="round"
     stroke-linejoin="round"
     d="m -77.8464,946.669 -0.2734,0.325 -0.2829,-0.687 0.6022,-9.873 2.0344,-14.303"
     id="path47" />
</g>
<g
   id="g48"
   transform="matrix(0,0.98973203,-0.87303,0,862.53351,461.07449)">
  <path
     fill="#000000"
     d="m 126.796,1666.7 c 0,0 0,0 0,0 2.019,-1.02 3.926,-2.3 6.056,-3.06 3.056,-1.08 6.446,-1.13 9.417,-2.43 1.281,-0.56 2.412,-1.68 2.962,-2.96 2.028,-4.74 4.192,-9.62 4.624,-14.75 0.309,-3.66 -1.533,-7.19 -2.476,-10.74 -1.005,-3.77 -2.024,-7.56 -3.365,-11.23 -0.095,-0.26 -0.558,-0.32 -0.812,-0.2 -0.789,0.36 -1.696,0.77 -2.1,1.54 -0.407,0.77 -0.285,1.77 -0.088,2.62 1.394,6.06 4.588,11.8 4.839,18.01 0.155,3.84 -2.351,7.32 -3.669,10.94 -0.239,0.65 -0.411,1.45 -0.993,1.84 -1.375,0.91 -3.024,1.34 -4.59,1.87 -2.034,0.68 -4.221,0.91 -6.194,1.75 -1.743,0.74 -3.088,2.27 -4.853,2.96 -0.947,0.37 -2.035,0.21 -3.047,0.13 -2.62,-0.23 -5.197,-0.83 -7.815,-1.08 -8.213,-0.77 -16.5098,-0.76 -24.6699,-1.97 -3.2699,-0.48 -6.2456,-2.18 -9.4236,-3.09 -5.4662,-1.56 -11.0433,-2.73 -16.4983,-4.33 -1.7431,-0.52 -3.427,-1.23 -5.0675,-2.01 -4.126,-1.97 -8.3679,-3.76 -12.2167,-6.22 -1.8123,-1.16 -2.8744,-3.24 -4.5909,-4.54 -1.0834,-0.82 -2.5289,-1.02 -3.6919,-1.72 -0.5382,-0.33 -0.8236,-0.98 -1.3496,-1.32 -1.3932,-0.91 -3.1357,-1.3 -4.3673,-2.42 -2.3082,-2.1 -4.2073,-4.62 -6.1012,-7.1 -1.291,-1.69 -2.1542,-3.68 -3.4302,-5.38 -0.7352,-0.98 -1.9374,-1.58 -2.5733,-2.63 -1.9845,-3.27 -3.5756,-6.76 -5.2216,-10.21 -1.3676,-2.87 -2.7184,-5.76 -3.815,-8.74 -1.1999,-3.27 -2.24008,-6.6 -3.06329,-9.98 -1.18347,-4.85 -2.20703,-9.76 -2.94939,-14.7 -1.61044,-10.73 -2.86157,-21.51 -4.10508,-32.28 -0.697697,-6.05 -1.32053,-12.11 -1.717839,-18.18 -1.903171,-29.09 -3.705291,-58.19 -5.182971,-87.3 -1.79767,-35.42 -3.25222,-70.86 -4.64277,-106.3 -0.15666,-3.99 -0.23806,-8 0.00143,-11.99 0.04289,-0.71 0.66614,-1.28 0.83696,-1.97 0.16159,-0.66 0.14555,-1.35 0.14691,-2.03 0.04764,-23.67 0.41576,-47.34 6e-5,-71 -0.24621,-14.02 -1.44712,-28 -1.98532,-42.01 -0.1279,-3.33 -0.051,-6.66 -0.0128,-9.99 0.9569,-83.33 2.29233,-166.66 2.99811,-250 0.29359,-34.665 0.26585,-69.335 0,-104 -0.11295,-14.729 -0.87195,-29.446 -1.13632,-44.172 -0.735,-40.941 -1.36349,-81.883 -1.86179,-122.828 -0.1176,-9.665 -0.2513,-19.335 0.0142,-28.997 0.0197,-0.715 0.6662,-1.282 0.837,-1.977 0.16154,-0.658 0.1459,-1.349 0.1468,-2.026 0.04378,-30.331 0.70696,-60.671 -0.0127,-90.993 -0.9024,-38.024 -3.1155,-76.006 -4.8523,-114 -0.1608,-3.519 -0.4014,-7.04 -0.8403,-10.535 -0.8062,-6.42 -1.686,-12.838 -2.8928,-19.195 -0.7724,-4.069 -1.9142,-8.061 -3.038,-12.047 -0.5698,-2.021 -1.1234,-4.07 -2.0391,-5.959 -3.1179,-6.434 -6.5051,-12.738 -10.0354,-18.955 -0.8242,-1.451 -1.9137,-2.742 -3.0034,-4.006 -1.1064,-1.284 -2.485,-2.318 -3.5698,-3.62 -0.5926,-0.711 -0.8213,-1.683 -1.4302,-2.38 -1.5813,-1.811 -3.1072,-3.755 -5.1009,-5.098 -3.1723,-2.137 -6.7658,-3.575 -10.2181,-5.222 -2.8608,-1.365 -5.7591,-2.659 -8.7128,-3.809 -4.5625,-1.777 -9.0927,-3.704 -13.8236,-4.966 -4.8888,-1.303 -9.8912,-2.318 -14.9362,-2.701 -6.3333,-0.481 -12.7303,-0.478 -19.0543,0.119 -3.412,0.322 -6.695,1.527 -9.945,2.618 -2.308,0.774 -4.684,1.563 -6.678,2.961 -4.495,3.151 -8.317,7.172 -12.626,10.573 -2.032,1.604 -4.388,2.776 -6.38,4.43 -1.848,1.534 -3.626,3.194 -5.095,5.095 -1.933,2.501 -3.723,5.158 -5.047,8.029 -1.265,2.744 -2.304,5.666 -2.654,8.667 -0.505,4.323 -0.311,8.724 0.118,13.055 0.17,1.712 0.978,3.308 1.661,4.887 0.608,1.404 1.209,2.863 2.2,4.029 0.341,0.401 1.036,0.531 1.534,0.365 0.591,-0.196 0.996,-0.787 1.324,-1.316 0.183,-0.294 0.133,-0.684 0.133,-1.03 0,-0.675 0.106,-1.39 -0.133,-2.022 -0.195,-0.52 -0.832,-0.763 -1.101,-1.249 -0.646,-1.169 -1.488,-2.337 -1.616,-3.666 -0.419,-4.353 -0.681,-8.8 -0.002,-13.12 0.532,-3.379 2.194,-6.489 3.577,-9.618 0.488,-1.103 1.197,-2.117 2.006,-3.011 2.475,-2.734 5.01,-5.436 7.813,-7.833 1.712,-1.465 3.887,-2.304 5.662,-3.692 1.335,-1.044 2.312,-2.493 3.62,-3.57 2.574,-2.12 5.245,-4.13 8.005,-6.002 1.08,-0.733 2.238,-1.394 3.481,-1.791 3.677,-1.176 7.366,-2.553 11.21,-2.908 6.325,-0.583 12.7168,-0.284 19.0564,0.116 3.1864,0.2 6.3089,1.005 9.4294,1.68 2.5113,0.543 5.0389,1.088 7.452,1.971 5.6885,2.08 11.2693,4.452 16.8094,6.9 2.713,1.199 5.3353,2.599 7.9324,4.032 1.0537,0.582 2.0928,1.217 3.0046,2.002 1.5376,1.325 2.9515,2.793 4.3103,4.3 0.2805,0.312 0.2778,0.822 0.5735,1.119 0.6602,0.663 1.6078,1.004 2.2335,1.7 0.6962,0.773 1.0199,1.825 1.6695,2.638 0.6849,0.857 1.7661,1.392 2.3113,2.344 3.9277,6.86 7.6963,13.825 11.0458,20.985 1.0717,2.291 1.5517,4.818 2.172,7.27 1.0182,4.024 2.0134,8.062 2.7408,12.149 0.8696,4.887 1.672,9.801 2.046,14.75 1.0717,14.187 1.6382,28.407 2.2879,42.619 1.2481,27.301 2.8653,54.594 3.4055,81.918 0.5994,30.325 0.0564,60.662 0.0127,90.993 -0.001,0.677 0.0146,1.368 -0.1469,2.026 -0.1709,0.695 -0.8174,1.262 -0.837,1.977 -0.2655,9.662 -0.1318,19.332 -0.0142,28.997 0.4982,40.945 1.1268,81.887 1.8618,122.828 0.2644,14.726 1.0234,29.443 1.1364,44.172 0.2658,34.665 0.2944,69.335 0,104 -0.705,83 -2.0452,166 -2.9982,249 -0.0421,3.66 -0.1253,7.33 0.0128,10.99 0.5281,14.01 1.7391,27.99 1.9853,42.01 0.4157,23.66 0.0476,47.33 -10e-5,71 -0.0013,0.68 0.0147,1.37 -0.1468,2.03 -0.1709,0.69 -0.7941,1.26 -0.837,1.97 -0.2394,3.99 -0.1581,8 -0.0014,11.99 1.3905,35.44 2.8449,70.88 4.64243,106.3 1.47798,29.12 3.17596,58.23 5.18399,87.32 0.62765,9.09 1.63376,18.16 2.72188,27.21 1.161679,9.66 2.42738,19.31 4.02627,28.91 0.71569,4.3 1.8387,8.52 2.9119,12.74 0.61981,2.44 1.28247,4.87 2.16452,7.23 1.11818,2.98 2.45371,5.89 3.82541,8.77 1.6453,3.45 3.3182,6.9 5.2215,10.21 0.3753,0.66 1.1409,1.01 1.5733,1.63 1.9087,2.73 3.433,5.72 5.4301,8.38 1.0169,1.36 2.4854,2.32 3.5701,3.62 0.5853,0.7 0.712,1.76 1.4071,2.36 1.6578,1.41 3.7269,2.27 5.4979,3.54 0.6125,0.45 0.9986,1.16 1.6262,1.58 1.385,0.92 3.0127,1.45 4.3672,2.42 0.9974,0.71 1.6181,1.88 2.6262,2.57 2.2844,1.58 4.7072,2.97 7.1885,4.22 4.1174,2.07 8.229,4.22 12.583,5.73 5.5264,1.92 11.341,2.88 16.9568,4.52 3.1928,0.93 6.1665,2.7 9.4564,3.19 10.7669,1.59 21.6556,2.25 32.5126,3.05"
     id="path48" />
</g>
<g
   id="g49"
   transform="matrix(0,0.98973203,-0.87303,0,862.53351,461.07449)">
  <path
     fill="none"
     stroke="#000000"
     stroke-width="4"
     stroke-linecap="round"
     stroke-linejoin="round"
     d="m 135.865,1628.7 -1.017,1.43 -1.418,0.94 -0.711,0.9 -1.396,0.63 0.02,-0.41 -0.085,1.03 -0.11,-1.09 -0.224,0.36 0.855,-0.27 1.515,-1.88 0.887,-1.67 1.956,-2.25 5.213,-10.57 1.088,-3.84 0.279,1.69 0.841,0.18 0.789,0.74 0.466,-0.25 1.817,0.55 5.669,3.11 1.542,0.17 1.973,1.97 1.431,0.78 1.584,1.69 0.379,1.15 0.196,-0.59 -1.479,-1.43"
     id="path49" />
</g>
<g
   id="g50"
   transform="matrix(0,0.98973203,-0.87303,0,862.53351,461.07449)">
  <path
     fill="#000000"
     d="m 111.462,1598.89 c 0,0 0,0 0,0 15.346,-0.96 30.68,-2.14 46.038,-2.89 4.326,-0.21 8.67,-0.25 12.993,0.01 6.36,0.4 12.655,1.57 19.014,1.98 3.988,0.25 8.001,0.25 11.989,-0.01 1.051,-0.06 1.969,-0.79 3.008,-0.96 0.666,-0.11 1.369,-0.05 2.022,0.13 0.389,0.1 0.617,0.79 1.002,0.67 0.92,-0.28 1.654,-1.01 2.337,-1.69 0.147,-0.15 0.128,-0.46 0,-0.62 -0.684,-0.87 -1.449,-1.7 -2.339,-2.36 -0.278,-0.21 -0.683,-0.13 -1.03,-0.13 -1.341,0 -2.698,-0.09 -4.022,0.13 -0.707,0.11 -1.263,0.79 -1.978,0.83 -3.655,0.24 -7.333,0.24 -10.989,0.01 -6.688,-0.43 -13.317,-1.59 -20.007,-1.99 -4.323,-0.26 -8.667,-0.19 -12.993,0.01 -14.952,0.72 -29.853,2.77 -44.822,2.78 -1.164,0 -1.066,-2.3 -2.128,-2.77 -1.232,-0.56 -2.726,-0.27 -4.051,-0.01 -1.648,0.33 -3.261,0.93 -4.731,1.74 -0.687,0.38 -1.1844,1.07 -1.5743,1.75 -0.0931,0.16 0.153,0.36 0.2998,0.48 1.2775,1.01 2.3625,2.5 3.9455,2.88"
     id="path50" />
</g>
<g
   id="g51"
   transform="matrix(0,0.98973203,-0.87303,0,862.53351,461.07449)">
  <path
     fill="none"
     stroke="#000000"
     stroke-width="4"
     stroke-linecap="round"
     stroke-linejoin="round"
     d="m 98.5889,1588.79 -0.2055,0.54 -0.2471,-0.65 -0.2617,1.49 0.5758,-12.79 -0.3474,-12.39 0.1995,-13.67 -0.4757,-16.52 -5.5244,-67.65 -2.7102,-44.49 -3.703,-51.25 -1.5405,-27.5 -0.4049,-15.69 -0.6625,-7.19"
     id="path51" />
</g>
<g
   id="g52"
   transform="matrix(0,0.98973203,-0.87303,0,862.53351,461.07449)">
  <path
     fill="#000000"
     d="m 178.797,1554.69 c 0,0 0,0 0,0 0.892,-0.55 1.862,-1 2.674,-1.67 1.031,-0.84 2.031,-1.76 2.816,-2.83 0.771,-1.06 1.403,-2.25 1.797,-3.5 0.842,-2.67 2.012,-5.39 1.887,-8.19 -0.134,-3.02 -1.402,-5.91 -2.639,-8.66 -0.936,-2.08 -2.086,-4.19 -3.808,-5.69 -0.601,-0.52 -1.909,-0.33 -2.367,0.32 -0.586,0.83 -0.337,2.09 -0.008,3.06 0.424,1.24 1.608,2.09 2.172,3.28 1.017,2.14 1.883,4.36 2.545,6.63 0.197,0.68 0.148,1.43 0.003,2.12 -0.408,1.94 -0.892,3.88 -1.651,5.7 -0.449,1.08 -1.181,2.03 -1.933,2.93 -0.822,0.98 -1.549,2.25 -2.759,2.66 -1.604,0.55 -3.423,0.35 -5.087,0.02 -2.631,-0.52 -5.165,-1.49 -7.637,-2.53 -2.75,-1.16 -5.62,-2.23 -7.986,-4.05 -3.256,-2.51 -6.237,-5.45 -8.667,-8.76 -0.602,-0.82 -0.327,-2.09 0,-3.06 0.276,-0.81 1.387,-1.14 1.693,-1.94 0.188,-0.49 0.005,-1.16 -0.365,-1.54 -0.812,-0.82 -1.799,-1.92 -2.949,-1.81 -1.098,0.1 -2.108,1.23 -2.379,2.29 -0.58,2.28 -0.548,4.77 0,7.06 0.347,1.45 1.576,2.54 2.566,3.66 1.907,2.15 3.876,4.27 6.095,6.09 1.58,1.31 3.402,2.3 5.225,3.23 2.746,1.4 5.563,2.67 8.452,3.75 1.926,0.71 3.91,1.37 5.951,1.61"
     id="path52" />
</g>
<g
   id="g53"
   transform="matrix(0,0.98973203,-0.87303,0,862.53351,461.07449)">
  <path
     fill="none"
     stroke="#000000"
     stroke-width="4"
     stroke-linecap="round"
     stroke-linejoin="round"
     d="m 155.448,1505.76 0.365,1.34 1.693,0.72 0.9,0.81 8.576,1.89 2.45,-0.2 1.63,-0.53 1.054,-1.42 0.327,-1.25 -0.294,-2.48 -3.328,-5.53 -3.563,-3.27 -2.833,-1.25 -0.724,0.17 -1.209,-0.28 -0.536,-0.48 -1.503,1.5 -1.843,2.55 -0.421,2.07 0.629,2.09 1.237,1.07"
     id="path53" />
</g>
<g
   id="g54"
   transform="matrix(0,0.98973203,-0.87303,0,862.53351,461.07449)">
  <path
     fill="none"
     stroke="#000000"
     stroke-width="4"
     stroke-linecap="round"
     stroke-linejoin="round"
     d="m 156.524,1464.78 0.568,0.33 0.43,2.93 0.716,1.89 3.103,5.02 0.456,0.02 2.507,1.95 3.504,1.8 1.305,-0.07 1.104,0.87 1.597,0.58 0.784,-0.17 0.444,-0.47 0.152,-2.29 -0.333,-1.79 -1.529,-3.88 -4.712,-6.14 -1.815,-1.47 -1.38,-0.64 -4.869,-1.14 -1.428,0.26 -5.063,-0.43 -2.242,0.42 -1.65,-0.12 -4.216,0.99 -0.829,0.62 -1.612,0.05 -4.317,1.2 -4.373,0.44 -1.889,-0.52 -1.677,0.59 -2.848,0.24 2.381,-1.56"
     id="path54" />
</g>
<g
   id="g55"
   transform="matrix(0,0.98973203,-0.87303,0,862.53351,461.07449)">
  <path
     fill="none"
     stroke="#000000"
     stroke-width="4"
     stroke-linecap="round"
     stroke-linejoin="round"
     d="m 155.976,1445.67 1.92,0.77 2.219,-0.97 0.659,-1.19 -0.086,-1.06 -0.889,-2.35 -2.701,-4.47 -3.156,-3.42 -0.281,0.21 -0.833,-0.26 -0.477,1.51 -0.17,2.51 0.662,2.24 1.838,2.9 2.669,2.39 2.042,1.22 3.011,1.02 3.554,0.35 1.878,-0.15 1.553,-0.86 1.26,-1.36 0.531,-1.53 0.349,-4.15 -0.437,-3.36 -1.168,-3.32 -0.399,-0.16"
     id="path55" />
</g>
<g
   id="g56"
   transform="matrix(0,0.98973203,-0.87303,0,862.53351,461.07449)">
  <path
     fill="#000000"
     d="m 153.497,1390.86 c 0,0 0,0 0,0 0.545,-0.31 1.191,-0.49 1.636,-0.93 1.029,-1.03 2.298,-2.02 2.718,-3.4 0.582,-1.92 0.431,-4.04 0.135,-6.02 -0.248,-1.67 -0.858,-3.3 -1.737,-4.74 -1.117,-1.82 -4.676,-2.8 -4.159,-4.87 0.52,-2.09 3.939,-1.73 5.977,-2.41 2.751,-0.92 5.501,-1.95 8.371,-2.36 2.99,-0.42 6.041,-0.22 9.058,-0.11 0.521,0.01 1.067,0.17 1.486,0.48 0.864,0.63 1.798,1.32 2.271,2.28 1.189,2.42 1.907,5.05 2.61,7.66 0.119,0.44 0.046,0.96 -0.176,1.36 -0.696,1.26 -1.321,2.7 -2.517,3.5 -1.969,1.31 -4.352,1.87 -6.609,2.57 -0.655,0.2 -1.383,0.26 -2.054,0.11 -1.962,-0.41 -3.991,-0.79 -5.753,-1.75 -0.875,-0.47 -1.109,-1.67 -1.828,-2.36 -0.706,-0.68 -1.426,-1.59 -2.398,-1.69 -0.628,-0.07 -1.139,0.71 -1.379,1.29 -0.26,0.64 -0.261,1.42 0,2.06 0.412,0.99 1.169,1.83 1.925,2.6 0.788,0.81 1.634,1.63 2.663,2.09 1.807,0.8 3.757,1.28 5.702,1.65 1.023,0.19 2.1,0.19 3.122,0 2.054,-0.39 4.068,-1.01 6.027,-1.74 1.263,-0.47 2.456,-1.13 3.597,-1.84 0.443,-0.28 0.857,-0.65 1.108,-1.11 0.987,-1.81 2.432,-3.57 2.567,-5.62 0.161,-2.45 -0.9,-4.84 -1.726,-7.15 -0.701,-1.96 -1.523,-3.95 -2.824,-5.57 -0.967,-1.21 -2.261,-2.41 -3.784,-2.69 -3.636,-0.66 -7.418,-0.46 -11.088,-0.02 -3.306,0.4 -6.49,1.52 -9.672,2.5 -5.033,1.55 -10.526,2.24 -14.956,5.08 -1.618,1.04 -0.884,3.76 -1.589,5.55 -0.198,0.5 -1.002,0.68 -1.072,1.21 -0.306,2.34 -0.436,4.76 -0.011,7.08 0.207,1.14 1.133,2.01 1.839,2.92 0.531,0.68 1.154,1.31 1.846,1.82 0.588,0.44 1.284,0.72 1.951,1.02 1.207,0.56 2.36,1.32 3.667,1.56 m 4.109,-4.03 c 0,0 0,0 0,0 -1.036,0.01 -2.1,0.26 -3.109,0.03 -1.3,-0.31 -2.567,-0.86 -3.666,-1.62 -1.038,-0.72 -2.171,-1.55 -2.626,-2.72 -0.489,-1.26 -0.437,-2.78 0,-4.06 0.262,-0.76 1.372,-0.9 1.903,-1.52 0.75,-0.86 1,-2.15 1.894,-2.87 0.419,-0.34 1.108,-0.13 1.61,0.06 0.946,0.36 1.896,0.83 2.61,1.55 1.089,1.1 2.278,2.29 2.685,3.78 0.532,1.95 0.352,4.07 0,6.06"
     id="path56" />
</g>
<g
   id="g57"
   transform="matrix(0,0.98973203,-0.87303,0,862.53351,461.07449)">
  <path
     fill="none"
     stroke="#000000"
     stroke-width="4"
     stroke-linecap="round"
     stroke-linejoin="round"
     d="m 148.383,1348.12 -2.564,-7.38 -1.328,-2.58 -0.889,-1 -0.413,0.26 -0.505,-0.22 -0.431,0.69 -1.074,0.47 -2.197,3.94 -0.024,1.66 0.367,0.96 3.146,2.74 1.502,0.39 2.737,1.58 4.529,1.82 4.597,0.84 2.743,0.1 2.314,-0.67 1.628,-0.9 0.705,-1.38 0.472,-3.69 -0.505,-2.6 -1.072,-3.16 -2.022,-3.29 -2.605,-3.04 -0.539,-0.47 -1.061,-0.05 -1.418,-0.87"
     id="path57" />
</g>
<g
   id="g58"
   transform="matrix(0,0.98973203,-0.87303,0,862.53351,461.07449)">
  <path
     fill="none"
     stroke="#000000"
     stroke-width="4"
     stroke-linecap="round"
     stroke-linejoin="round"
     d="m 141.817,1328.5 0.132,0.46 1.226,0.1 1.56,-0.88 2.863,-3.51 0.382,0.46 0.175,-0.74 -0.191,0.18 -0.12,-0.36 -0.102,0.67 -0.393,0.14 -4.6,-0.32 -4.126,-2.31 -2.35,-2.77 -0.778,-1.85 0.191,-1.39 1.036,-1.14 0.73,0.1 3.711,-3.04 4.511,-2.14 3.321,-0.96 1.356,0.12 3.551,-0.77"
     id="path58" />
</g>
<g
   id="g59"
   transform="matrix(0,0.98973203,-0.87303,0,862.53351,461.07449)">
  <path
     fill="none"
     stroke="#000000"
     stroke-width="4"
     stroke-linecap="round"
     stroke-linejoin="round"
     d="m 147.497,1294.78 1.729,-2.61 0.614,-2.05 0.046,-2.92 -0.394,-2.61 -1.316,-4.75 -1.626,-2.83 -0.735,-0.58 -0.257,1.04 -0.542,-0.7 -0.386,0.82 -0.305,-0.35 -1.276,6.31 0.162,2.82 1.282,2.88 2.021,2.05 3.341,1.22 4.637,0.8 1.444,-0.93 1.321,0.1 2.9,-1.12 1.788,-2.4 0.531,-2.21 -0.261,-4.23 -1.286,-3.9 -1.793,-2.84 -1.498,-1.47"
     id="path59" />
</g>
<g
   id="g60"
   transform="matrix(0,0.98973203,-0.87303,0,862.53351,461.07449)">
  <path
     fill="none"
     stroke="#000000"
     stroke-width="4"
     stroke-linecap="round"
     stroke-linejoin="round"
     d="m 139.812,1270.65 0.156,-0.7 0.611,-0.14 2.047,-2.39 5.522,-4.52 7.286,-4.38 1.774,-0.28 0.361,0.58 -0.56,0.87 -0.868,0.03 -0.499,-0.44 -1.483,1.14 -1.004,-0.48 -1.163,0.86 -3.2,0.72 -4.266,-1.55 -3.148,-2 -3.435,-3.16 -0.988,-1.28"
     id="path60" />
</g>
<g
   id="g61"
   transform="matrix(0,0.98973203,-0.87303,0,862.53351,461.07449)">
  <path
     fill="none"
     stroke="#000000"
     stroke-width="4"
     stroke-linecap="round"
     stroke-linejoin="round"
     d="m 145.61,1215.86 -1.34,1.87 -0.621,2.51 0.257,2.95 1.855,4.86 2.441,3.77 5.269,4.5 1.796,0.14 1.148,-1.01 0.332,-3.09 -0.693,-4.31 -3.946,-12.85 -2.297,-4.11 -0.656,-1.83 -1.689,-0.92 -1.053,-0.01 -0.333,0.49 0.516,1.5 0.429,-0.82 1.25,0.73 2.076,0.21 5.563,1.74 6.309,-1.25 1.812,-1.44 0.752,-1.08 0.501,-2.03 -0.123,-1.11 -0.833,-1.96 -2.194,-1.99 -5.425,-3.59"
     id="path61" />
</g>
<g
   id="g62"
   transform="matrix(0,0.98973203,-0.87303,0,862.53351,461.07449)">
  <path
     fill="none"
     stroke="#000000"
     stroke-width="4"
     stroke-linecap="round"
     stroke-linejoin="round"
     d="m 124.886,1194.61 -1.421,-0.22 -1.413,0.21 -6.839,-1.08 -2.749,-0.53 -1.797,-0.79 1.591,-0.08 2.206,0.67 0.557,-0.13 11.032,-3.71 3.091,-1.36 8.244,-1.99 3.174,-0.42 7.391,-2.63 2.512,-0.21 4.106,-2.23 1.555,-1.72 0.604,0.04 1.629,-0.79 1.177,-0.97 -0.315,0.66 -1.238,0.12 -4.986,-0.64"
     id="path62" />
</g>
<g
   id="g63"
   transform="matrix(0,0.98973203,-0.87303,0,862.53351,461.07449)">
  <path
     fill="none"
     stroke="#000000"
     stroke-width="4"
     stroke-linecap="round"
     stroke-linejoin="round"
     d="m 134.95,1175.63 -2.018,0.23 -0.952,0.46 -0.335,1.29 2.209,7.34 1.92,8.96 0.485,5.07 -0.372,4.95"
     id="path63" />
</g>
<g
   id="g64"
   transform="matrix(0,0.98973203,-0.87303,0,862.53351,461.07449)">
  <path
     fill="none"
     stroke="#000000"
     stroke-width="4"
     stroke-linecap="round"
     stroke-linejoin="round"
     d="m 142.384,1154.36 4.534,-2.06 1.746,-1.29 2.065,-0.87 0.861,0.08 1.316,-1.2 0.452,0.49 0.462,-1.04 -0.113,-0.83 -0.162,0.15"
     id="path64" />
</g>
<g
   id="g65"
   transform="matrix(0,0.98973203,-0.87303,0,862.53351,461.07449)">
  <path
     fill="none"
     stroke="#000000"
     stroke-width="4"
     stroke-linecap="round"
     stroke-linejoin="round"
     d="m 127.567,1151.13 0.184,0.56 0.254,-0.55 0.089,0.67 0.671,-0.51 0.395,0.08 3.176,-3.29"
     id="path65" />
</g>
<g
   id="g66"
   transform="matrix(0,0.98973203,-0.87303,0,862.53351,461.07449)">
  <path
     fill="none"
     stroke="#000000"
     stroke-width="4"
     stroke-linecap="round"
     stroke-linejoin="round"
     d="m 133.155,1119.42 0.647,2.6 1.777,3.44 1.01,1.49 0.469,-0.29 0.609,0.34 0.55,1.23 1.389,1.46 2.492,1.97 1.774,0.59 0.365,0.53 0.474,0.05 1.436,-2.15 0.445,-2.19 -0.144,-3.81 -2.336,-6.84 -1.962,-3.93 -1.66,-2.11 -1.075,-1.1 -2.374,-1.47 -0.374,-0.13 -1.826,1.25 -0.512,0.01 -0.499,1.32 -1.188,1.7 -1.306,4.2 -0.074,2.06 0.756,1.9 3.583,1.29 2.143,0.48 1.908,-0.43 0.793,-0.68"
     id="path66" />
</g>
<g
   id="g67"
   transform="matrix(0,0.98973203,-0.87303,0,862.53351,461.07449)">
  <path
     fill="none"
     stroke="#000000"
     stroke-width="4"
     stroke-linecap="round"
     stroke-linejoin="round"
     d="m 126.88,1097.99 -0.375,-0.66 0.336,-1.11 3.006,-3.14 11.039,-4.98 3.031,-0.73 0.497,-0.41 -0.083,-0.2 -1.018,0.22 -0.329,-0.49 -0.93,0.13 -0.659,-1 -3.413,-1.56 -4.559,-2.9 -0.993,-0.19 -3.055,-2.08 -1.193,-0.32 -1.686,-1.78 -0.229,-1.51 0.759,-0.56 1.747,-0.26 0.566,0.68 0.727,0.05 0.652,-0.71 2.181,-0.55 5.705,-0.44 0.756,-0.76 0.793,-0.28 0.669,0.46 2.798,0.04 -0.064,-0.41 -1.366,0.04"
     id="path67" />
</g>
<g
   id="g68"
   transform="matrix(0,0.98973203,-0.87303,0,862.53351,461.07449)">
  <path
     fill="none"
     stroke="#000000"
     stroke-width="4"
     stroke-linecap="round"
     stroke-linejoin="round"
     d="m 84.7323,1323.09 0.4386,0.25 0.3145,1.39 -0.0826,-4.56 -0.8996,-4.51 -1.4537,-15.19 -1.2183,-41.44 0.092,-12.83 1.595,-48.07 -0.0174,-10.47 -0.8587,-28.98 -1.662,-35.61 0.1581,-27.1 -0.9538,-14.09 0.1203,-1.52 0.2185,-0.45 -0.0034,0.8 0.6283,-1.64"
     id="path68" />
</g>
<g
   id="g69"
   transform="matrix(0,0.98973203,-0.87303,0,862.53351,461.07449)">
  <path
     fill="none"
     stroke="#000000"
     stroke-width="4"
     stroke-linecap="round"
     stroke-linejoin="round"
     d="m 83.1059,1054.1 -2.0126,-2.47 -1.1642,-3.28 0.2003,-4.39 0.0466,1.95 3.0573,17.1 2.4724,19.98 0.8176,12.3 0.1463,8.58 -0.216,3.12 -0.3134,0.7 -0.155,-0.16 -1.0901,-10.91"
     id="path69" />
</g>
<g
   id="g70"
   transform="matrix(0,0.98973203,-0.87303,0,862.53351,461.07449)">
  <path
     fill="none"
     stroke="#000000"
     stroke-width="4"
     stroke-linecap="round"
     stroke-linejoin="round"
     d="m 82.1493,1040.06 -0.3767,-0.01 -0.1726,0.41 0.2188,1.52"
     id="path70" />
</g>
<g
   id="g71"
   transform="matrix(0,0.98973203,-0.87303,0,862.53351,461.07449)">
  <path
     fill="#000000"
     d="m 80.4987,1041.84 c 0,0 0,0 0,0 0.752,-0.69 1.3082,-1.69 2.256,-2.07 4.8539,-1.96 9.7706,-3.98 14.9312,-4.85 10.0431,-1.69 20.2951,-1.72 30.4241,-2.77 5.412,-0.56 10.831,-1.12 16.193,-2.04 2.417,-0.42 4.822,-1.03 7.09,-1.96 0.693,-0.29 1.219,-0.95 1.577,-1.6 0.172,-0.32 0.066,-0.77 -0.121,-1.08 -0.32,-0.53 -0.777,-1.01 -1.32,-1.31 -0.318,-0.18 -0.736,-0.11 -1.09,-0.02 -2.399,0.57 -4.701,1.53 -7.128,1.97 -5.058,0.89 -10.171,1.48 -15.282,2.01 -10.089,1.05 -20.218,1.69 -30.3067,2.74 -1.3771,0.15 -2.7478,0.43 -4.0667,0.85 -1.9883,0.63 -3.8059,1.76 -5.8195,2.31 -2.9861,0.82 -6.1708,0.82 -9.1167,1.77 -0.7295,0.24 -1.2731,0.98 -1.5704,1.68 -0.2653,0.63 -0.3215,1.45 0,2.06 0.5147,0.96 1.427,1.69 2.3275,2.31 m 92.0235,-12 c 0,0 0,0 0,0 0.45,-0.44 1.083,-0.74 1.349,-1.31 0.235,-0.5 0.358,-1.2 0.047,-1.66 -0.544,-0.8 -1.474,-1.29 -2.341,-1.73 -0.324,-0.16 -0.768,-0.16 -1.084,0.02 -0.543,0.3 -1.061,0.75 -1.32,1.31 -0.232,0.5 -0.358,1.2 -0.047,1.66 0.545,0.81 1.478,1.29 2.345,1.73"
     id="path71" />
</g>
<g
   id="g72"
   transform="matrix(0,0.98973203,-0.87303,0,862.53351,461.07449)">
  <path
     fill="none"
     stroke="#000000"
     stroke-width="4"
     stroke-linecap="round"
     stroke-linejoin="round"
     d="m 208.221,1594.06 -0.751,-0.13 1.16,-5.77 1.007,-9.2 0.048,-7.99 -1.502,-20.54 -3.752,-39.65 -1.943,-52.23 -1.886,-33.21 -1.964,-18.21 -4.093,-27.61 -1.678,-14.31 -3.383,-23.57 -1.33,-14.09 -0.687,-13.74 -0.051,-12.75 -0.706,-23.45 -0.893,-15.94 -1.986,-25.52 -1.386,-25.77 -3.251,-37.99 -0.942,-15.91 -2.136,-50.86 -0.779,-37.49 -1.153,-33.16"
     id="path72" />
</g>
<g
   id="g73"
   transform="matrix(0,0.98973203,-0.87303,0,862.53351,461.07449)">
  <path
     fill="none"
     stroke="#000000"
     stroke-width="4"
     stroke-linecap="round"
     stroke-linejoin="round"
     d="m 175.282,1032.93 -0.184,-0.01"
     id="path73" />
</g>
<g
   id="g74"
   transform="matrix(0,0.98973203,-0.87303,0,862.53351,461.07449)">
  <path
     fill="none"
     stroke="#000000"
     stroke-width="4"
     stroke-linecap="round"
     stroke-linejoin="round"
     d="m 155.896,1030.17 -1.472,-1.47 -0.369,0.12 -1.437,-1.33 -0.759,-0.27 -0.31,-0.02 0.121,0.69 -0.565,0.13 -1.623,-0.73 -0.461,-0.69 -0.799,0.51 -0.352,-0.31 0.009,0.78 -0.304,-0.89 0.226,-0.8 0.304,1.17 1.028,-1.18 1.782,-0.02 1.164,-0.68 4.073,-0.43 3.196,-0.9 1.849,-0.91 3.34,-0.97 1.352,-0.99 3.386,-0.25 0.934,0.45 0.722,-0.89 -0.078,0.28 -0.115,-0.28 -0.67,0.41 0.199,-0.19 0.14,0.52 0.094,-0.59 0.106,0.49 0.064,-0.65 0.475,3.21 0.224,10.76"
     id="path74" />
</g>
<g
   id="g75"
   transform="matrix(0,0.98973203,-0.87303,0,862.53351,461.07449)">
  <path
     fill="none"
     stroke="#000000"
     stroke-width="4"
     stroke-linecap="round"
     stroke-linejoin="round"
     d="m 146.407,1019.87 -0.594,0.95 0.085,0.38 0.388,-1.67 0.883,-5.78 0.207,-7.71 -1.067,-17.926 -0.911,-10.054 -0.168,-15.424 0.613,-18.271"
     id="path75" />
</g>
<g
   id="g76"
   transform="matrix(0,0.98973203,-0.87303,0,862.53351,461.07449)">
  <path
     fill="none"
     stroke="#000000"
     stroke-width="4"
     stroke-linecap="round"
     stroke-linejoin="round"
     d="m 99.0013,805.602 -1.5086,-0.558 0.4751,-0.011 0.1079,3.779 1.1588,8.108 0.0647,2.471 -0.4107,1.892 0.2212,1.285 0.2127,-0.253 0.9336,0.443 1.295,1.92 2.38,0.732 3.782,-0.071 6.175,-1.607 5.668,-1.022 4.827,-1.482 10.172,-0.576 10.034,-1.881 5.354,-1.52 3.161,-0.494 -1.26,-0.129 0.221,-0.182 0.066,0.37 0.251,-0.444 -0.038,-1.111 -1.178,-1.195 -1.208,-2.828 -0.769,-2.559 -0.33,-2.54"
     id="path76" />
</g>
<g
   id="g77"
   transform="matrix(0,0.98973203,-0.87303,0,862.53351,461.07449)">
  <path
     fill="none"
     stroke="#000000"
     stroke-width="4"
     stroke-linecap="round"
     stroke-linejoin="round"
     d="m 131.243,818.102 -0.835,0.236 -0.331,-0.209 0.009,0.328 -0.347,-1.854 -1.689,-4.456 -0.27,-2.892 0.466,-3.531"
     id="path77" />
</g>
<g
   id="g78"
   transform="matrix(0,0.98973203,-0.87303,0,862.53351,461.07449)">
  <path
     fill="none"
     stroke="#000000"
     stroke-width="4"
     stroke-linecap="round"
     stroke-linejoin="round"
     d="m 121.778,768.089 -0.35,-0.507 -1.197,0.396 -0.313,-0.223 0.042,0.732 0.512,-0.135 4.872,1.113 8.687,2.701 8.604,3.961 1.094,1.059 1.275,0.27 0.639,0.544 -0.303,-0.983 -1.123,-0.388"
     id="path78" />
</g>
<g
   id="g79"
   transform="matrix(0,0.98973203,-0.87303,0,862.53351,461.07449)">
  <path
     fill="none"
     stroke="#000000"
     stroke-width="4"
     stroke-linecap="round"
     stroke-linejoin="round"
     d="m 129.635,778.953 -2.681,1.935 -0.817,0.018 -2.529,1.092 -0.459,-0.189 1.63,-0.868 2.838,-2.558 3.048,-3.552 3.648,-4.8 2.942,-4.786 2.506,-5.048 1.424,-1.333 0.146,0.626 -0.233,0.171"
     id="path79" />
</g>
<g
   id="g80"
   transform="matrix(0,0.98973203,-0.87303,0,862.53351,461.07449)">
  <path
     fill="none"
     stroke="#000000"
     stroke-width="4"
     stroke-linecap="round"
     stroke-linejoin="round"
     d="m 132.61,747.568 -1.944,-6.898 -2.071,-4.057 -1.219,-1.285 -0.715,2.021 -0.44,0.61 -0.262,-0.158 -0.139,1.645 0.306,1.679 1.455,2.746 2.833,1.754 2.318,0.921 2.935,0.911 2.844,-0.114 0.854,-0.689 0.489,-0.929 0.528,-2.277 0.067,-2.439 -0.689,-5.326 -1.454,-4.918"
     id="path80" />
</g>
<g
   id="g81"
   transform="matrix(0,0.98973203,-0.87303,0,862.53351,461.07449)">
  <path
     fill="none"
     stroke="#000000"
     stroke-width="4"
     stroke-linecap="round"
     stroke-linejoin="round"
     d="m 127.642,705.891 -0.149,-0.446 -0.428,0.598 -0.225,-0.084 0.435,0.443 0.409,3.447 1.238,3.342 1.92,2.5 2.687,1.616 3.659,0.869 2.67,-0.074 2.245,-1.403 0.877,-1.212 0.664,-1.786 0.2,-5.727 -0.847,-4.17 -2.996,-8.97"
     id="path81" />
</g>
<g
   id="g82"
   transform="matrix(0,0.98973203,-0.87303,0,862.53351,461.07449)">
  <path
     fill="none"
     stroke="#000000"
     stroke-width="4"
     stroke-linecap="round"
     stroke-linejoin="round"
     d="m 129.459,686.007 -0.66,0.53 -0.013,0.636 0.742,-0.284 1.933,0.469 3.829,-0.016 1.005,0.466 1.7,-1.815 0.214,-0.905 0.083,-2.907 -0.893,-3.552 -1.085,-1.904 -2.034,-2.332 -2.6,-1.772 -2.807,-1.053 -3.572,-0.139 -2.071,0.238 -1.941,1.143 -2.433,2.499 0.355,-0.844 0.958,-0.415 0.804,0.154 1.86,-1.428"
     id="path82" />
</g>
<g
   id="g83"
   transform="matrix(0,0.98973203,-0.87303,0,862.53351,461.07449)">
  <path
     fill="none"
     stroke="#000000"
     stroke-width="4"
     stroke-linecap="round"
     stroke-linejoin="round"
     d="m 104.883,656.678 -4.168,1.754 -2.2588,0.113 6.6818,-2.696 2.008,-1.393 11.656,-3.72 2.041,0.269 1.021,-0.703 8.967,-2.617 3.029,-1.66 -0.104,-0.363 -1.028,-0.466"
     id="path83" />
</g>
<g
   id="g84"
   transform="matrix(0,0.98973203,-0.87303,0,862.53351,461.07449)">
  <path
     fill="none"
     stroke="#000000"
     stroke-width="4"
     stroke-linecap="round"
     stroke-linejoin="round"
     d="m 117.372,642.571 0.152,6.68 2.116,10.376 0.29,2.754"
     id="path84" />
</g>
<g
   id="g85"
   transform="matrix(0,0.98973203,-0.87303,0,862.53351,461.07449)">
  <path
     fill="none"
     stroke="#000000"
     stroke-width="4"
     stroke-linecap="round"
     stroke-linejoin="round"
     d="m 124.054,612.125 -0.304,2.975 1.758,4.646 1.23,2.014 2.001,0.646 0.728,-1.262 0.242,-1.356 -1.328,-5.026 -3.334,-5.789 -1.931,-2.081 -0.316,0.345 -0.12,-0.221 -0.141,0.418 -0.031,0.87 0.21,-1.275 0.483,0.426 4.344,0.035 3.866,-1.389 2.154,-1.46 0.756,-1.636 0.016,-1.203"
     id="path85" />
</g>
<g
   id="g86"
   transform="matrix(0,0.98973203,-0.87303,0,862.53351,461.07449)">
  <path
     fill="none"
     stroke="#000000"
     stroke-width="4"
     stroke-linecap="round"
     stroke-linejoin="round"
     d="m 98.9271,598.822 -3.888,1.712 -4.0493,1.117 -2.6722,0.197 -0.1486,-0.466 3.5938,-0.431 3.1799,-1.321 2.162,-1.448 13.1483,-3.787 2.208,-0.182 4.914,-1.453 2.698,-0.091 1.07,0.484 0.007,0.386 -1.014,0.252 -0.549,-0.579 -0.51,0.093 -0.955,-0.728 -0.532,-0.878 -1.645,-1.003 -1.609,-2.79 -0.127,-2.09 0.71,-2.258 1.651,-3.118 6.705,-9.754 1.005,-0.359 1.369,0.93 0.874,2.762 0.66,2.561 0.958,7.379 0.698,8.296 0.126,5.929 -0.148,0.548 -0.527,0.161 -1.212,-3.407"
     id="path86" />
</g>
<g
   id="g87"
   transform="matrix(0,0.98973203,-0.87303,0,862.53351,461.07449)">
  <path
     fill="none"
     stroke="#000000"
     stroke-width="4"
     stroke-linecap="round"
     stroke-linejoin="round"
     d="m 98.1771,551.62 -5.4399,4.578 -4.8688,2.56 -1.4704,1.308 -0.5763,-0.2 0.0146,-0.252 0.9322,-0.852 0.7471,0.298 1.9969,-0.522 2.0411,0.051 19.6564,-5.576 5.714,-2.257 10.901,-5.561 9.153,-4.03 0.438,-0.453 0.05,-0.717 -0.928,-1.744"
     id="path87" />
</g>
<g
   id="g88"
   transform="matrix(0,0.98973203,-0.87303,0,862.53351,461.07449)">
  <path
     fill="#000000"
     d="m 91.4842,867.886 c 0,0 0,0 0,0 23.4728,-5.028 46.9048,-10.252 70.4188,-15.085 3.722,-0.765 7.566,-0.861 11.27,-1.705 1.849,-0.422 3.76,-0.964 5.298,-2.073 1.14,-0.821 1.837,-2.178 2.391,-3.469 0.273,-0.637 0.242,-1.434 -0.011,-2.08 -0.227,-0.581 -0.76,-1.053 -1.322,-1.323 -0.474,-0.228 -1.195,-0.433 -1.575,-0.071 -1.2,1.142 -1.457,3.086 -2.719,4.158 -0.853,0.724 -2.136,0.688 -3.236,0.899 -4.723,0.908 -9.508,1.487 -14.219,2.455 -22.437,4.611 -44.769,9.725 -67.2177,14.278 -1.0089,0.205 -2.0746,0.161 -3.0884,-0.018 -0.3854,-0.068 -0.5769,-0.566 -0.9467,-0.695 -0.3321,-0.115 -0.7649,-0.198 -1.0547,10e-4 -0.8993,0.618 -1.9685,1.28 -2.3146,2.314 -0.2331,0.698 0.3598,1.493 0.8615,2.031 0.355,0.38 0.9646,0.455 1.4841,0.482 m -5.5453,-3.462 c 0,0 0,0 0,0 0.2979,-0.33 0.7503,-0.571 0.8937,-0.992 0.2179,-0.64 0.2424,-1.357 0.1329,-2.025 -0.1976,-1.205 -0.8057,-2.314 -1.041,-3.512 -0.6156,-3.133 -1.071,-6.297 -1.5072,-9.46 -1.0079,-7.309 -2.0838,-14.613 -2.8248,-21.954 -1.5168,-15.027 -2.9866,-30.065 -3.9475,-45.138 -2.0486,-32.132 -3.64,-64.293 -5.0799,-96.458 -1.6731,-37.373 -2.1074,-74.802 -4.259,-112.151 -1.373,-23.833 -4.3351,-47.549 -6.3116,-71.34 -0.0834,-1.004 -0.072,-2.033 0.1341,-3.019 0.0799,-0.382 0.5641,-0.576 0.6941,-0.944 0.1213,-0.344 0.0752,-0.732 0.025,-1.093 -0.4982,-3.583 -0.9322,-7.182 -1.6682,-10.724 -0.0592,-0.285 -0.3982,-0.465 -0.6753,-0.554 -0.3335,-0.107 -0.7444,-0.171 -1.0508,-10e-4 -0.5444,0.301 -0.9957,0.787 -1.3241,1.316 -0.1827,0.294 -0.1303,0.683 -0.1334,1.03 -0.0419,4.663 -0.3389,9.338 -0.0014,13.989 1.4476,19.951 3.6968,39.837 5.3534,59.771 0.7234,8.704 1.418,17.415 1.786,26.142 1.3713,32.517 2.0064,65.063 3.4312,97.578 1.4326,32.694 3.0582,65.381 5.1406,98.039 0.9283,14.56 2.3299,29.09 3.8902,43.596 1.121,10.423 2.4747,20.825 4.1518,31.173 0.3552,2.191 1.1376,4.301 1.9336,6.373 0.1228,0.32 0.4356,0.622 0.7739,0.676 M 124.96,523.523 c 0,0 0,0 0,0 1.091,-1.092 2.462,-1.963 3.272,-3.277 0.867,-1.408 1.342,-3.057 1.636,-4.685 0.298,-1.659 0.366,-3.388 0.118,-5.054 -0.587,-3.957 -1.588,-7.845 -2.607,-11.713 -0.539,-2.041 -1.264,-4.033 -2.061,-5.988 -0.331,-0.813 -0.686,-1.667 -1.311,-2.283 -0.377,-0.371 -0.979,-0.482 -1.507,-0.492 -0.471,-0.008 -1.173,0.002 -1.343,0.441 -0.371,0.96 -0.261,2.086 -0.023,3.087 0.51,2.138 1.631,4.091 2.237,6.205 1.014,3.543 2.04,7.102 2.615,10.743 0.263,1.663 0.209,3.4 -0.12,5.052 -0.262,1.31 -0.979,2.493 -1.619,3.666 -0.153,0.28 -0.413,0.553 -0.724,0.626 -0.797,0.187 -2.101,0.857 -2.453,0.118 -1.65,-3.469 -1.525,-7.555 -2.808,-11.175 -0.267,-0.751 -1.005,-1.327 -1.736,-1.645 -0.627,-0.273 -1.426,-0.275 -2.052,0 -0.743,0.326 -1.352,0.977 -1.767,1.674 -1.054,1.77 -1.891,3.675 -2.573,5.618 -0.227,0.648 -0.253,1.382 -0.118,2.055 0.186,0.929 0.469,1.895 1.058,2.638 0.722,0.91 1.763,1.526 2.741,2.153 1.487,0.954 2.929,2.101 4.631,2.575 1.622,0.452 3.368,0.21 5.05,0.123 m -7.974,-6.193 c 0,0 0,0 0,0 -0.455,-0.421 -1.05,-0.729 -1.363,-1.264 -0.183,-0.311 -0.169,-0.756 -0.015,-1.082 0.378,-0.801 0.776,-2.6 1.545,-2.161 0.933,0.533 0.335,2.137 0.295,3.211"
     id="path88" />
</g>
<g
   id="g89"
   transform="matrix(0,0.98973203,-0.87303,0,862.53351,461.07449)">
  <path
     fill="none"
     stroke="#000000"
     stroke-width="4"
     stroke-linecap="round"
     stroke-linejoin="round"
     d="m 160.54,510.319 1.453,24.125 1.361,13.372 1.855,10.039 2.457,31.579 1.107,34.006 -0.117,24.509 0.61,20.734 2.054,23.305 3.729,30.621 1.724,23.432 0.368,11.694 -0.115,26.974 0.673,15.318 1.084,11.793 0.43,8.574 -0.069,3.154 -0.652,4.596 -1.107,5.01 -0.137,-0.96"
     id="path89" />
</g>
<g
   id="g90"
   transform="matrix(0,0.98973203,-0.87303,0,862.53351,461.07449)">
  <path
     fill="none"
     stroke="#000000"
     stroke-width="4"
     stroke-linecap="round"
     stroke-linejoin="round"
     d="m 63.5119,480.343 -0.3318,0.468 -1.1129,0.136 -0.817,-0.736 -1.0482,-0.158 -0.149,0.606 -0.322,-0.364 -1.2546,0.112 -1.4555,0.768 -2.156,0.421 -0.2382,0.426 -0.624,-0.465 -0.1282,-0.65 -0.2888,0.639 0.3752,-0.185 -0.0639,-0.775 -0.0697,1.037 -0.0428,-0.671 0.2444,-0.603 0.0327,0.598 0.6189,-0.02 7.5692,-5.064 3.1063,-0.609 7.7392,-2.456 10.0155,-1.217 5.6507,-1.395 3.6367,-1.24 7.2685,-1.521 0.8764,-0.458 10.368,-1.141 2.662,0.172 4.668,-1.337 2.503,-0.258 1.301,-0.706 3.141,-0.514 1.072,0.115 2.714,-1.049 1.407,-0.952 4.736,-0.471 0.609,0.202 2.428,-1.075 0.301,-0.766 1.037,0.87 0.155,-0.584 0.361,0.689 0.697,-0.724 0.429,0.084 0.213,-0.521 0.251,0.68 -0.02,-0.324 -0.023,0.228 -0.26,-0.224 -0.178,0.684 -0.193,-0.27 -1.118,-0.112"
     id="path90" />
</g>
<g
   id="g91"
   transform="matrix(0,0.98973203,-0.87303,0,862.53351,461.07449)">
  <path
     fill="none"
     stroke="#000000"
     stroke-width="4"
     stroke-linecap="round"
     stroke-linejoin="round"
     d="m 157.105,527.753 -0.756,0.219 -0.075,0.457 0.276,0.141 0.234,-0.673 0.207,-10.429 -3.465,-40.762 -1.416,-8.443 -0.492,-1.664 -1.037,-1.642 0.182,0.39 0.254,-0.845 0.408,-5.973 0.244,0.947 -0.225,-0.164 0.096,-0.549 0.259,0.389"
     id="path91" />
</g>
<g
   id="g92"
   transform="matrix(0,0.98973203,-0.87303,0,862.53351,461.07449)">
  <path
     fill="none"
     stroke="#000000"
     stroke-width="4"
     stroke-linecap="round"
     stroke-linejoin="round"
     d="m 141.728,854.529 -0.581,0.599 -0.618,-1.029 0.13,-0.612 1.048,1.766 0.126,-0.435 -0.16,0.834 -0.136,-0.316 -0.069,2.419 0.712,7.944 0.719,24.232 1.887,29.285 0.448,24.481 0.755,11.466 -0.188,0.386 -0.5,-0.809 -0.069,-1.429"
     id="path92" />
</g>
<g
   id="g93"
   transform="matrix(0,0.98973203,-0.87303,0,862.53351,461.07449)">
  <path
     fill="none"
     stroke="#000000"
     stroke-width="4"
     stroke-linecap="round"
     stroke-linejoin="round"
     d="m 150.675,928.813 -0.584,1.673 0.156,0.71"
     id="path93" />
</g>
<g
   id="g94"
   transform="matrix(0,0.98973203,-0.87303,0,862.53351,461.07449)">
  <path
     fill="none"
     stroke="#000000"
     stroke-width="4"
     stroke-linecap="round"
     stroke-linejoin="round"
     d="m 135.402,859.618 -0.891,0.513 -0.085,0.487 -0.674,0.192 -0.79,1.956 -2.241,12.511 -2.851,12.506 -1.567,2.861 0.283,-1.441 3.407,-5.053 4.515,-13.604 1.28,-6.741 0.38,-3.872 -0.047,-1.325 -0.404,0.107 -0.066,0.868 0.478,0.282 0.108,-0.861 -0.064,0.415 0.125,-0.411 0.391,0.356 0.823,-0.433 1.997,-1.285 -0.026,-0.385 -0.267,0.832 0.402,-1.236 0.35,-0.067 0.327,0.457 0.95,-2.239 0.044,-0.948 0.533,-0.647 -0.091,-1.074 0.057,1.064 0.106,-0.333 0.392,1.193 0.689,0.587 2.236,4.416 1.285,1.712 5.622,14.967"
     id="path94" />
</g>
<g
   id="g95"
   transform="matrix(0,0.98973203,-0.87303,0,862.53351,461.07449)">
  <path
     fill="none"
     stroke="#000000"
     stroke-width="4"
     stroke-linecap="round"
     stroke-linejoin="round"
     d="m 145.063,858.904 -0.748,-0.071 -0.019,0.56 4.04,4.765 5.344,7.805"
     id="path95" />
</g>
<g
   id="g96"
   transform="matrix(0,0.98973203,-0.87303,0,862.53351,461.07449)">
  <path
     fill="none"
     stroke="#000000"
     stroke-width="4"
     stroke-linecap="round"
     stroke-linejoin="round"
     d="m 144.991,458.023 0.485,-0.144 0.199,0.404 0.012,-0.384 1.2,7.68"
     id="path96" />
</g>
<g
   id="g97"
   transform="matrix(0,0.98973203,-0.87303,0,862.53351,461.07449)">
  <path
     fill="none"
     stroke="#000000"
     stroke-width="4"
     stroke-linecap="round"
     stroke-linejoin="round"
     d="m -123.447,1626.29 0.637,1.03 -0.192,-1.09 0.127,0.45 0.228,-0.49 0.041,-0.97 0.068,0.74 0.125,-0.4 0.122,0.37 0.141,-0.17 -0.031,-0.56 -0.079,0.67 -0.031,-0.4 0.119,0.33 0.349,-0.15 -0.675,14.85 -0.529,51.92 0.318,10.33 2.041,27.58 1.381,29.09 -0.073,3.31 -0.96,4.14 0.114,-1.43"
     id="path97" />
</g>
<g
   id="g98"
   transform="matrix(0,0.98973203,-0.87303,0,862.53351,461.07449)">
  <path
     fill="none"
     stroke="#000000"
     stroke-width="4"
     stroke-linecap="round"
     stroke-linejoin="round"
     d="m -122.665,1630.51 -0.453,0.2 -0.289,-0.74 -0.79,2.31 -0.494,-0.11 -0.874,0.63 -1.53,-0.01 -0.144,0.64 -0.24,-0.24 -0.456,0.28 -0.626,1.13 -0.535,0.26 -0.809,1.92 -1.283,1.9 -2.213,2.11 -0.173,-0.2 -0.124,0.21 -0.02,-0.62 -0.469,1.43 0.281,-0.44 -0.174,-0.96 0.862,-0.43 3.086,-5.32 4.006,-5.14 0.971,-2.07 1.655,-5.19 0.259,-0.45 0.114,0.46 -0.19,-0.5 0.202,0.26 -0.154,-0.5 0.14,0.29 0.603,-1.94 0.071,-1.33 0.215,2.32 0.161,-0.39 0.647,-0.1 2.132,2.57 1.574,0.77 9.115,17.75 6.333,14.11"
     id="path98" />
</g>
<g
   id="g99"
   transform="matrix(0,0.98973203,-0.87303,0,862.53351,461.07449)">
  <path
     fill="none"
     stroke="#000000"
     stroke-width="4"
     stroke-linecap="round"
     stroke-linejoin="round"
     d="m -226.075,1747.9 -2.301,1.6 -1.471,2.24 -2.962,7.71 0.654,2.05 3.25,1.92 3.474,0.82 0.868,-0.07 8.639,-6.34 5.407,-6.32 2.317,-0.8 1.92,0.24 1.383,0.59 3.984,3.1 2.048,3.01 0.228,1.98 -0.764,0.88"
     id="path99" />
</g>
<g
   id="g100"
   transform="matrix(0,0.98973203,-0.87303,0,862.53351,461.07449)">
  <path
     fill="none"
     stroke="#000000"
     stroke-width="4"
     stroke-linecap="round"
     stroke-linejoin="round"
     d="m -225.385,1736.02 -0.815,0.35 -0.059,-0.2 -0.137,0.42 1.526,2.07 4.095,2.04 3.061,0.73 1.932,-0.36 1.247,-0.81 0.575,-1.09 0.316,-2.19 -0.033,-1.44 -0.693,-2.81 -2.019,-3.78 -2.019,-1.13 -1.431,0.22 -2.353,1.36 -4.279,4.73 -0.675,1.64 0.436,1.28 0.755,-0.48 2.009,-0.32"
     id="path100" />
</g>
<g
   id="g101"
   transform="matrix(0,0.98973203,-0.87303,0,862.53351,461.07449)">
  <path
     fill="none"
     stroke="#000000"
     stroke-width="4"
     stroke-linecap="round"
     stroke-linejoin="round"
     d="m -225.269,1718.52 -0.175,0.45 0.369,0.68 1.078,0.75 2.854,-0.09 2.459,-0.66 2.208,-1.88 0.712,-1.54 0.291,-1.63 -0.502,-2.93 -0.804,-0.96 -0.445,-0.19 -0.438,0.39 -0.848,-0.15 -1.757,0.53 -3.892,-0.83 -2.76,0.95 0.23,-0.46 0.299,0.34 1.54,-0.89"
     id="path101" />
</g>
<g
   id="g102"
   transform="matrix(0,0.98973203,-0.87303,0,862.53351,461.07449)">
  <path
     fill="none"
     stroke="#000000"
     stroke-width="4"
     stroke-linecap="round"
     stroke-linejoin="round"
     d="m -229.272,1702.63 0.253,0.17 -0.278,0.02 0.282,-0.85 4.608,-2.08 5.316,-3.03 3.466,-1.66 0.638,0.2 -0.403,0.93 -0.307,-0.11 -0.27,0.51 -0.023,-0.32 -0.729,-0.46 -1.765,0.35 -0.89,-0.38 -0.458,0.32 -1.88,0.14 -3.677,-0.9 -2.179,-1.13 -0.926,-2.72 0.131,-2.3"
     id="path102" />
</g>
<g
   id="g103"
   transform="matrix(0,0.98973203,-0.87303,0,862.53351,461.07449)">
  <path
     fill="none"
     stroke="#000000"
     stroke-width="4"
     stroke-linecap="round"
     stroke-linejoin="round"
     d="m -223.821,1673.26 -1.296,-1.11 -0.963,2.78 -0.199,2.71 0.371,2.38 0.162,-0.23 3.018,3.41 0.926,0.17 2.253,1.75 1.897,0.47 2.97,-0.62 1.012,-0.57 1.545,-2.21 1.399,-5.02 0.166,-2.13 -0.396,-1.36"
     id="path103" />
</g>
<g
   id="g104"
   transform="matrix(0,0.98973203,-0.87303,0,862.53351,461.07449)">
  <path
     fill="none"
     stroke="#000000"
     stroke-width="4"
     stroke-linecap="round"
     stroke-linejoin="round"
     d="m -222.481,1666.42 1.11,-1.6 0.13,-3.06 -0.524,-3.29 -1.711,-2.69 -0.125,-0.77 -0.825,2.24 -1.591,2.4 -0.663,2.65 0.471,1.28 0.819,0.88 2.279,0.48 0.837,0.8 2.588,-0.95 0.972,0.2 1.999,-1.9 1.568,-2.41 1.932,-6.35 0.53,-3.95"
     id="path104" />
</g>
<g
   id="g105"
   transform="matrix(0,0.98973203,-0.87303,0,862.53351,461.07449)">
  <path
     fill="none"
     stroke="#000000"
     stroke-width="4"
     stroke-linecap="round"
     stroke-linejoin="round"
     d="m -164.358,1751.72 -1.373,0.18 -1.34,1.26 -0.547,-0.06 -0.383,0.57 -0.081,1.34 0.373,0.89 1.726,1.95 4.642,2.97 2.34,1.03 2.976,0.37 2.578,-0.09 3.513,-1.09 0.689,-0.67 0.732,-1.89 0.396,-5.62 -0.458,-1.98 -0.993,-1.97"
     id="path105" />
</g>
<g
   id="g106"
   transform="matrix(0,0.98973203,-0.87303,0,862.53351,461.07449)">
  <path
     fill="none"
     stroke="#000000"
     stroke-width="4"
     stroke-linecap="round"
     stroke-linejoin="round"
     d="m -160.203,1730.93 -1.008,1.76 0.465,1.51 2.819,2.32 3.248,1.24 1.342,-0.19 1.98,-0.87 1.966,-1.63 0.563,-1.29 -0.199,-3.05 -1.477,-2.79 -2.041,-0.95 -2.054,0.48 -4.859,5.13 -0.908,1.5 0.016,1.94 1.48,0.53"
     id="path106" />
</g>
<g
   id="g107"
   transform="matrix(0,0.98973203,-0.87303,0,862.53351,461.07449)">
  <path
     fill="none"
     stroke="#000000"
     stroke-width="4"
     stroke-linecap="round"
     stroke-linejoin="round"
     d="m -158.471,1702.88 -0.215,1.98 0.529,5.42 1.39,6.2 1.725,1.72 1.448,-0.2 0.866,0.31 1.841,-0.55 1.318,-0.97 1.333,-2.72 0.321,-2.28 -0.497,-3.24 -0.951,-2.32 -1.33,-2.2 -1.932,-1.19 -2.029,-0.27 -6.544,0.76 -2.574,-0.35 -14.468,1.59 -6.586,1.34 0.44,-0.39 1.548,0.81 3.415,-1.71"
     id="path107" />
</g>
<g
   id="g108"
   transform="matrix(0,0.98973203,-0.87303,0,862.53351,461.07449)">
  <path
     fill="none"
     stroke="#000000"
     stroke-width="4"
     stroke-linecap="round"
     stroke-linejoin="round"
     d="m -161.449,1687.54 0.009,0.26 1.537,-0.58 0.504,-0.71 0.559,0.15 1.513,-1.05 0.357,-2.85 -0.303,-1.82 -1.12,-2.77 -1.825,-2.3 -0.73,-0.15 -0.307,0.64 h -0.681 l -1.645,1.41 -1.026,1.58 -0.853,3.09 0.041,1.57 0.444,1.12 0.738,0.27 2.338,2.19 2.155,0.37 2.282,-0.28 1.846,-0.84 1.841,-1.54 2.607,-3.4 2.615,-9.32"
     id="path108" />
</g>
<g
   id="g109"
   transform="matrix(0,0.98973203,-0.87303,0,862.53351,461.07449)">
  <path
     fill="none"
     stroke="#000000"
     stroke-width="4"
     stroke-linecap="round"
     stroke-linejoin="round"
     d="m -75.0897,1628.44 -0.4215,-0.56 -0.1169,0.26 -0.5394,-0.3 -0.1839,0.26 -0.6252,-0.39 -0.4036,0.36 -0.1082,-0.39 -1.8217,-1.12 -0.4771,0.67 0.093,0.96 -0.2596,-0.09 -0.1957,0.59 -0.0747,-1.07 -0.2101,0.08 -0.158,-0.46 -0.3522,0.11 -0.0191,0.53 0.3267,-0.83 0.0391,0.59 0.593,0.06 4.8709,-1.27 1.5353,0.01 4.6629,-1.41 3.3982,-0.37 3.3941,-0.12 0.9377,0.86 2.2965,-1.5 0.1315,-0.85 0.4233,0.71 1.2044,-0.51 0.4887,0.28 1.9872,-0.58 0.4109,-0.5 0.6093,0.57 0.2417,-0.14 0.1644,0.63 0.3544,-0.79 0.6192,-0.32 0.53,-0.84 0.5397,0.32 5.005,-0.65 1.0768,0.13 -0.4283,-0.56 -0.2379,0.36 -0.1064,-0.5 -0.1165,1.43 0.0788,-1.25 -0.2642,1 0.119,-0.89 0.0872,0.36 -0.7147,0.82 -0.7339,0.29 -0.3551,-0.35 -1.5281,2.46 -0.4376,2.61 -0.152,-0.64 0.0733,0.63 0.0398,-1.11 1.7403,-2.75 0.8518,-4.21 -0.4265,-39.83"
     id="path109" />
</g>
<g
   id="g110"
   transform="matrix(0,0.98973203,-0.87303,0,862.53351,461.07449)">
  <path
     fill="none"
     stroke="#000000"
     stroke-width="4"
     stroke-linecap="round"
     stroke-linejoin="round"
     d="m -64.3302,1361.84 1.2936,0.18 0.8273,0.58 -0.0428,0.5 -0.3352,-0.66 -1.3318,-0.42 -0.4442,-0.75 -3.1186,1.09 -0.4659,0.93 -0.9342,-0.26 -0.8714,0.46 -1.5218,-0.52 -4.385,1.54 -0.3997,0.98 0.1986,-1.75 0.1612,1.24 0.1302,-0.98 0.0372,0.54 1.0674,0.05 1.1189,0.58 5.1442,-1.05 1.1511,0.21 0.6429,-0.36 3.0374,-0.4 4.0949,-1.39 -0.1027,0.54 -0.2752,-0.29 0.0344,-0.73 0.13,0.52 0.344,-0.67 1.0097,1.19 0.6165,-0.27 0.8286,0.21 0.0783,-0.34 0.1474,0.42 0.1644,-0.73 -0.1987,1.71 0.1536,-2.24 -0.0712,1.79 1.0416,7.52 5.194,30.92"
     id="path110" />
</g>
<g
   id="g111"
   transform="matrix(0,0.98973203,-0.87303,0,862.53351,461.07449)">
  <path
     fill="none"
     stroke="#000000"
     stroke-width="4"
     stroke-linecap="round"
     stroke-linejoin="round"
     d="m -200.971,1361.75 -1.129,0.02 -0.783,0.59 -0.924,-0.36 -1.116,0.35 -1.1,1.18 -0.155,-0.49 -1.119,0.22 -0.225,-0.3 -1.048,-0.16 -0.566,-0.83 -0.915,0.43 -0.39,-0.56 -0.933,0.92 -0.263,-0.13 -0.027,0.35 -0.045,-0.25 0.168,-0.48 0.553,1.65 0.693,-0.19 4.258,1.28 3.67,0.48 2.94,0.24 3.018,-0.25"
     id="path111" />
</g>
<g
   id="g112"
   transform="matrix(0,0.98973203,-0.87303,0,862.53351,461.07449)">
  <path
     fill="none"
     stroke="#000000"
     stroke-width="4"
     stroke-linecap="round"
     stroke-linejoin="round"
     d="m -104.107,618.643 -0.848,0.297 -0.069,0.387 -0.153,-1.552 -0.134,0.482 -3.828,1.195 -0.271,0.448 -2.603,0.441 -2.206,-0.083 -0.986,-0.898 -0.492,0.408 -1.219,0.16 -1.743,-0.382 -3.929,0.286 -0.894,0.495 -0.921,-0.027 -0.896,-0.425 -8.552,-1.158 -1.599,-0.836 -0.754,0.131 -5.599,-1.284 -2.454,-1.025 -0.176,-0.481 0.054,0.346 2.094,-3.105 0.838,-0.326 3.875,-3.718 6.581,-2.979 3.624,-1.019 1.803,-0.079 8.908,-1.884 3.459,-1.362 0.046,-0.322 -0.684,0.707 0.214,-0.88 0.047,0.632 0.086,-0.237 -0.407,0.202 -0.217,-0.331 -1.969,1.487 -0.394,1.182 -0.696,-0.112 -1.497,0.783 -0.406,-0.61 -0.919,1.251 -0.482,1.522 0.746,6.005 3.788,9.524"
     id="path112" />
</g>
<g
   id="g113"
   transform="matrix(0,0.98973203,-0.87303,0,862.53351,461.07449)">
  <path
     fill="none"
     stroke="#000000"
     stroke-width="4"
     stroke-linecap="round"
     stroke-linejoin="round"
     d="m -102.78,391.489 -0.345,0.04 -0.202,-0.373 -0.298,0.28 0.287,-0.158 -0.837,-0.381 -1.372,0.304 -0.882,-0.397 -0.913,0.448 -0.439,-0.179 -2.172,0.719 -0.917,-0.032 -2.721,0.962 -3.258,0.688 -3.027,-0.267 -2.175,0.521 -1.475,-0.23 -3.522,0.597 -1.352,0.776 -0.723,-0.179 -3.594,0.524 -3.262,0.038 -1.168,-0.279 -2.718,0.557 -2.507,-0.308 -1.577,0.333 -0.294,0.666 0.009,-0.724"
     id="path113" />
</g>
<g
   id="g114"
   transform="matrix(0,0.98973203,-0.87303,0,862.53351,461.07449)">
  <path
     fill="none"
     stroke="#000000"
     stroke-width="4"
     stroke-linecap="round"
     stroke-linejoin="round"
     d="m -123.541,590.162 -1.379,1.34 -0.847,-0.336 -0.133,-0.675 0.435,-0.369 0.166,0.771 0.51,-1.133 1.303,-0.946 0.75,-1.124 2.541,-0.886 2.879,-1.738 2.389,-2.135 0.079,0.522 0.122,-0.248 -0.337,0.35 -0.246,-0.585 -5.18,-0.976 -3.779,-1.621 -1.963,-1.885 -0.35,-1.499 0.584,-0.051 0.261,0.305 0.312,-0.569 3.859,-3.277 4.204,-1.79 1.303,-0.019 0.46,-0.341 0.136,0.321 0.813,-0.976"
     id="path114" />
</g>
<g
   id="g115"
   transform="matrix(0,0.98973203,-0.87303,0,862.53351,461.07449)">
  <path
     fill="none"
     stroke="#000000"
     stroke-width="4"
     stroke-linecap="round"
     stroke-linejoin="round"
     d="m -120.157,555.431 -1.401,0.322 -0.159,1.135 0.475,2.551 1.03,2.337 0.952,0.831 0.494,-0.106 1.594,0.912 1.997,-0.202 1.015,-0.632 0.818,-1.687 0.068,-1.599 -1.079,-4.538 -1.431,-1.609 -2.015,-1.214 -1.343,-0.421 -0.389,-0.581 -0.614,0.428 -1.861,0.026 0.971,0.132 2.072,-1.122 1.743,-0.317 1.705,-1.223 3.489,-1.579 1.855,-2.77 0.14,-3.841"
     id="path115" />
</g>
<g
   id="g116"
   transform="matrix(0,0.98973203,-0.87303,0,862.53351,461.07449)">
  <path
     fill="none"
     stroke="#000000"
     stroke-width="4"
     stroke-linecap="round"
     stroke-linejoin="round"
     d="m -123.612,527.306 0.07,-1.268 -0.298,-0.053 -0.377,0.512 -0.215,-0.264 -0.237,0.298 -0.334,-0.264 -0.482,0.302 -0.224,-0.265 -0.97,0.587 -2.118,0.114 -0.543,-0.262 -4.94,1.669 -2.43,0.439 -7.888,2.365 -1.817,-0.2 -0.442,0.506 -4.467,1.717 -0.776,0.622 -3.33,0.352 -0.48,-0.266 -1.889,0.102 -0.88,-0.55"
     id="path116" />
</g>
<g
   id="g117"
   transform="matrix(0,0.98973203,-0.87303,0,862.53351,461.07449)">
  <path
     fill="none"
     stroke="#000000"
     stroke-width="4"
     stroke-linecap="round"
     stroke-linejoin="round"
     d="m -134.629,460.076 -0.369,-0.367 -0.352,0.16 -1.014,-1.006 0.086,0.615 0.244,-0.193 0.156,0.384 0.1,-0.602 0.167,0.618 1.395,0.262 0.852,0.602 4.533,0.458 1.722,-0.231 2.991,-0.904 0.083,-1.287"
     id="path117" />
</g>
<g
   id="g118"
   transform="matrix(0,0.98973203,-0.87303,0,862.53351,461.07449)">
  <path
     fill="none"
     stroke="#000000"
     stroke-width="4"
     stroke-linecap="round"
     stroke-linejoin="round"
     d="m -148.125,464.27 -0.615,0.253 -0.325,-0.188 0.556,-0.49 0.389,0.269 0.123,-0.518 0.183,0.715 0.709,0.048"
     id="path118" />
</g>
<g
   id="g119"
   transform="matrix(0,0.98973203,-0.87303,0,862.53351,461.07449)">
  <path
     fill="none"
     stroke="#000000"
     stroke-width="4"
     stroke-linecap="round"
     stroke-linejoin="round"
     d="m -141.846,430.702 -1.188,0.313 0.589,0.288 0.115,-0.197 0.378,1.948 3.109,6.547 2.57,3.607 2.841,2.887 0.795,0.294 -0.288,-1.017 -0.61,-0.462 -0.151,-0.887 1.449,-6.743 1.458,-4.738 1.84,-3.976 1.684,-2.612 2.659,-1.918 0.352,0.088 1.201,0.71 2.542,2.456 1.485,2.551 1.952,5.071 1.213,6.057"
     id="path119" />
</g>
<g
   id="g120"
   transform="matrix(0,0.98973203,-0.87303,0,862.53351,461.07449)">
  <path
     fill="none"
     stroke="#000000"
     stroke-width="4"
     stroke-linecap="round"
     stroke-linejoin="round"
     d="m -109.241,642.839 1.401,0.025"
     id="path120" />
</g>
<g
   id="g121"
   transform="matrix(0,0.98973203,-0.87303,0,862.53351,461.07449)">
  <path
     fill="none"
     stroke="#000000"
     stroke-width="4"
     stroke-linecap="round"
     stroke-linejoin="round"
     d="m -107.874,641.946 0.215,0.118 0.031,-0.285 -0.129,-1 -0.17,0.464 0.136,0.368 0.133,-0.748 -0.22,-0.536 -0.218,0.204 -0.251,-0.228 -1.008,-2.686 -0.521,-0.227 -0.115,-0.622 -0.158,0.22 0.402,0.569 0.49,2.23 1.481,8.429 1.818,7.171 0.313,0.679 -0.049,-0.965 -0.285,0.904 0.236,-0.743 -0.103,0.218 0.47,0.024 0.579,-0.712"
     id="path121" />
</g>
<g
   id="g122"
   transform="matrix(0,0.98973203,-0.87303,0,862.53351,461.07449)">
  <path
     fill="none"
     stroke="#000000"
     stroke-width="4"
     stroke-linecap="round"
     stroke-linejoin="round"
     d="m -394.155,1329.96 -1.062,-0.13 -4.98,0.93 -2.646,-0.05 -0.494,0.25 -0.974,-0.23 -3.573,0.37 0.235,0.54 0.108,-0.48 0.271,0.2 1.566,-0.84 1.72,-1.41 6.669,-1.57 3.463,-1.34 11.539,-2.31 11.443,-3.8 4.113,-2.97 0.686,-1.19 -0.215,-1.3 -0.48,-0.33 -0.205,0.44 0.323,0.35 0.005,0.89 0.369,-0.76 -0.182,0.55"
     id="path122" />
</g>
<g
   id="g123"
   transform="matrix(0,0.98973203,-0.87303,0,862.53351,461.07449)">
  <path
     fill="none"
     stroke="#000000"
     stroke-width="4"
     stroke-linecap="round"
     stroke-linejoin="round"
     d="m -422.793,1284.39 -3.131,-0.67 -1.853,-1.33 -0.35,-0.64 0.985,0.73 1.191,8.25 3.455,12.59 17.16,52.68 1.854,9.64 0.036,2.65 -0.101,0.44 -0.578,0.24 -0.658,-1.36 -0.381,-3.49"
     id="path123" />
</g>
<g
   id="g124"
   transform="matrix(0,0.98973203,-0.87303,0,862.53351,461.07449)">
  <path
     fill="none"
     stroke="#000000"
     stroke-width="4"
     stroke-linecap="round"
     stroke-linejoin="round"
     d="m -390.623,1296.39 -0.4,0.55 0.042,0.52 0.139,-0.27 2.343,-0.36 5.621,0.1 1.486,-0.63 1.027,-0.86 0.457,-1.4 -3.619,-4.81 -0.824,-0.49 -0.344,-0.79 -1.066,-1.06 -1.469,-0.98 -0.866,0.05 -0.47,0.55 -0.555,-0.3 -0.985,0.18 -1.069,-0.56 -0.546,-0.7 -0.725,0.29 -0.166,-0.31 0.038,0.37 0.634,0.35 2.644,-1.48 1.139,-1.2 3.886,-1.65 1.906,-0.41 4.186,-2.17 2.116,-0.32 7.922,-4.34 5.553,-1.46 2.958,0.24 2.088,0.89 1.853,1.44 4.727,5.9 2.386,4.17 3.472,7.65 0.33,2.37 -0.149,2 -1.456,4.1 -0.67,0.84 -1.8,1.18 -3.383,-0.94"
     id="path124" />
</g>
<g
   id="g125"
   transform="matrix(0,0.98973203,-0.87303,0,862.53351,461.07449)">
  <path
     fill="none"
     stroke="#000000"
     stroke-width="4"
     stroke-linecap="round"
     stroke-linejoin="round"
     d="m -385.199,1263.71 -2.904,0.68 -0.453,0.37 -0.405,0.02 0.091,-0.17 0.699,-0.19 0.286,-0.48 8.654,-1.24 4.905,-1.12 2.527,-0.2 9.247,-2.56 4.167,-1.98 1.687,-2.07 0.17,-0.71 0.082,0.4 0.061,-1.04"
     id="path125" />
</g>
<g
   id="g126"
   transform="matrix(0,0.98973203,-0.87303,0,862.53351,461.07449)">
  <path
     fill="none"
     stroke="#000000"
     stroke-width="4"
     stroke-linecap="round"
     stroke-linejoin="round"
     d="m -378.668,1266.32 -2.973,1.13 -4.371,0.01 -1.463,-0.87 -0.62,0.24 -2.301,-0.91 -1.877,-1.65 -1.407,-1.9 -0.803,-2.39 -0.32,-2.27 0.484,-3.1 1.137,-2.29 3.238,-2.54 2.596,-1.54 1.485,-0.53 1.518,-0.05 0.813,0.58 0.815,0.12 0.84,0.81 2.798,6.2 1.762,6.88 0.48,4.18 -0.039,2.83"
     id="path126" />
</g>
<g
   id="g127"
   transform="matrix(0,0.98973203,-0.87303,0,862.53351,461.07449)">
  <path
     fill="none"
     stroke="#000000"
     stroke-width="4"
     stroke-linecap="round"
     stroke-linejoin="round"
     d="m -389.385,1235.74 1.234,-1.31 2.201,-1.25 1.379,-1.26 4.968,-2.18 3.154,-0.76 0.851,0.13 0.423,-0.36 1.652,-0.33 0.428,0.01 -0.14,0.42"
     id="path127" />
</g>
<g
   id="g128"
   transform="matrix(0,0.98973203,-0.87303,0,862.53351,461.07449)">
  <path
     fill="none"
     stroke="#000000"
     stroke-width="4"
     stroke-linecap="round"
     stroke-linejoin="round"
     d="m -396.8,1239.79 -1.983,1.11 0.41,-0.53 0.523,0.27 1.61,-1.67"
     id="path128" />
</g>
<g
   id="g129"
   transform="matrix(0,0.98973203,-0.87303,0,862.53351,461.07449)">
  <path
     fill="none"
     stroke="#000000"
     stroke-width="4"
     stroke-linecap="round"
     stroke-linejoin="round"
     d="m -388.365,1203.84 -0.464,0.81 0.001,-0.42 0.439,1.52 3.885,5.2 2.422,2.27 3.42,2.53 4.345,2.22 2.145,0.46 1.906,-0.82 1.246,-2.11 0.218,-3.17 -0.61,-5.03 -1.748,-8.46 -1.478,-4.59"
     id="path129" />
</g>
<g
   id="g130"
   transform="matrix(0,0.98973203,-0.87303,0,862.53351,461.07449)">
  <path
     fill="none"
     stroke="#000000"
     stroke-width="4"
     stroke-linecap="round"
     stroke-linejoin="round"
     d="m -386.868,1160.06 -0.46,3.4 0.35,2.67 1.321,3.17 3.166,4.95 3.342,4.2 4.035,2.95 1.222,0.83 1.711,0.56 1.324,-0.44 0.405,-1.7 -1.194,-4.34 -2.39,-5.6 -3.926,-6.95 -2.645,-3.23 -4.159,-3.38 -2.298,-1 -1.43,0.16 -0.575,-0.27 -1.364,0.64 0.339,-0.49 0.565,0.47 0.86,-0.17 5.545,1.51 5.872,-0.44 3.247,-1.46 3.209,-2.12 1.143,-1.16 0.904,-1.54 0.393,-1.32 -0.017,-1.27 -0.642,-1.91 -1.693,-1.83 -2.081,-1.53"
     id="path130" />
</g>
<g
   id="g131"
   transform="matrix(0,0.98973203,-0.87303,0,862.53351,461.07449)">
  <path
     fill="none"
     stroke="#000000"
     stroke-width="4"
     stroke-linecap="round"
     stroke-linejoin="round"
     d="m -424.563,1146.65 -3.244,-0.48 -1.386,-0.92 -0.809,0.17 0.051,-0.27 2.319,-0.2 4.444,-2.67 5.483,-2.64 6.997,-2.84 24.354,-4.39 4.574,-1.47 6.256,-2.61 2.718,-1.47 0.955,-1.41 -0.537,-0.79"
     id="path131" />
</g>
<g
   id="g132"
   transform="matrix(0,0.98973203,-0.87303,0,862.53351,461.07449)">
  <path
     fill="none"
     stroke="#000000"
     stroke-width="4"
     stroke-linecap="round"
     stroke-linejoin="round"
     d="m -420.053,1032.98 -1.595,-1.57 -1.283,-0.56 0.2,0.57 0.52,-0.11 0.362,0.57 0.094,-0.41 0.417,1.08 0.545,3.15 1.72,5.83 2.052,3.84 2.037,3.03 5.701,6.63 2.413,1.86 4.358,2.64 3.889,1.72 2.748,0.85 8.694,1.19 0.757,-0.03 1.134,-0.59 1.896,-1.56 1.056,-2.06 1.378,-4.25 1.535,-11.73 -0.182,-7.81"
     id="path132" />
</g>
<g
   id="g133"
   transform="matrix(0,0.98973203,-0.87303,0,862.53351,461.07449)">
  <path
     fill="none"
     stroke="#000000"
     stroke-width="4"
     stroke-linecap="round"
     stroke-linejoin="round"
     d="m -398.985,1005.96 -0.355,2.85 0.921,1.65 2.375,2.46 7.073,4.67 3.934,2.2 0.963,0.13 3.107,-0.71 1.235,-1.36 0.48,-1.87 0.105,-2.35 -1.017,-4.69 -1.694,-3.7 -4.104,-6.757 -5.696,-7.65 -2.503,-2.315 -1.877,0.19 -1.253,1.571 -1.446,3.274 -1.44,5.566 -0.735,3.541 -0.216,3.18 0.593,3.84 1.184,2.22 1.803,1.67 3.198,1.64 0.926,0.31 2.826,0.09"
     id="path133" />
</g>
<g
   id="g134"
   transform="matrix(0,0.98973203,-0.87303,0,862.53351,461.07449)">
  <path
     fill="none"
     stroke="#000000"
     stroke-width="4"
     stroke-linecap="round"
     stroke-linejoin="round"
     d="m -399.707,978.358 -2.057,0.056 -0.487,-0.253 -0.149,-1.251 1.065,-0.7 3.425,-1.652 1.577,0.01 0.885,-0.684 3.913,-1.75 3.623,-0.775 1.114,-0.549 2.396,-0.115 0.606,-0.285 -1.747,0.09 -3.811,-1.02 -3.262,-1.59 -2.647,-2.751 -1.028,-1.766 -0.144,-1.662 0.15,-1.276 0.687,-1.665 0.874,-1.191 0.738,0.056 3.507,-2.797 2.146,-0.523 -0.518,0.29 -1.587,0.063 -2.8,-1.521 -1.91,-1.622 -1.269,-2.017 -0.373,-0.05 -1.33,-1.43 -1.777,-1.302 -0.381,0.343 -0.078,-0.88 1.664,-1.156 9.919,-2.217 1.842,-0.63 1.446,-0.945 1.14,-0.987 0.732,-1.176 -0.406,-3.028 -1.374,-2.29"
     id="path134" />
</g>
<g
   id="g135"
   transform="matrix(0,0.98973203,-0.87303,0,862.53351,461.07449)">
  <path
     fill="none"
     stroke="#000000"
     stroke-width="4"
     stroke-linecap="round"
     stroke-linejoin="round"
     d="m -392.056,923.902 -4.442,0.673 -0.863,-0.546 -0.65,0.387 0.664,-0.166 0.519,0.386 2.594,-2.135 7.215,-4.077 8.688,-3.8 8.249,-4.25 4.464,-3.154 11.186,-6.963 -0.992,0.186 -0.795,0.784 -1.776,0.217 -2.399,1.07 -3.52,3.515 -7.559,5.78 -6.134,4.145 -3.24,1.645 -1.734,0.436 -2.467,1.163 -6.456,0.719 -0.689,0.505 -0.786,0.094 -2.458,-1.399 -1.103,-0.093 -0.856,-0.738 -3.043,-4.297 -0.741,-2.604 0.024,-2.974 0.652,-2.464 2.733,-4.496 3.117,-2.867 0.94,0.887 1.35,2.942 2.345,7.149 1.881,11.395 0.218,-1.245 0.986,-2.129"
     id="path135" />
</g>
<g
   id="g136"
   transform="matrix(0,0.98973203,-0.87303,0,862.53351,461.07449)">
  <path
     fill="none"
     stroke="#000000"
     stroke-width="4"
     stroke-linecap="round"
     stroke-linejoin="round"
     d="m -395.28,889.526 -1.591,0.804 -0.659,0.722 -0.276,-0.424 1.497,-1.019 6.768,-1.958 1.371,0.163 5.207,-2.705 0.585,-0.704 -0.25,-0.061 -2.212,0.664 -1.262,0.812"
     id="path136" />
</g>
<g
   id="g137"
   transform="matrix(0,0.98973203,-0.87303,0,862.53351,461.07449)">
  <path
     fill="none"
     stroke="#000000"
     stroke-width="4"
     stroke-linecap="round"
     stroke-linejoin="round"
     d="m -407.903,898.992 -1.099,0.712 -0.119,-0.36 0.115,0.901 0.368,-1.356 0.218,-0.184 -0.049,0.605"
     id="path137" />
</g>
<g
   id="g138"
   transform="matrix(0,0.98973203,-0.87303,0,862.53351,461.07449)">
  <path
     fill="none"
     stroke="#000000"
     stroke-width="4"
     stroke-linecap="round"
     stroke-linejoin="round"
     d="m -429.619,878.905 -4.282,-0.052 -2.193,0.489 -0.794,-0.381 -1.616,-0.013 -0.514,-0.381 3.461,0.304 10.393,-1.273 13.276,-2.239 7.079,-1.817 11.106,-3.727 6.61,-3.491 0.824,-0.076 3.126,-2.876 0.351,-1.381 -0.469,0.817 0.228,0.348 0.258,-0.679"
     id="path138" />
</g>
<g
   id="g139"
   transform="matrix(0,0.98973203,-0.87303,0,862.53351,461.07449)">
  <path
     fill="none"
     stroke="#000000"
     stroke-width="4"
     stroke-linecap="round"
     stroke-linejoin="round"
     d="m -394.165,853.188 0.717,-3.992 0.163,-4.591 -0.514,-3.697 -1.467,-4.607 -1.059,-1.84 -1.067,-0.968 -1.636,1.26 -3.152,4.164 -0.86,2.651 -0.153,2.468 1.235,2.904 1.748,2.567 10.009,7.337 0.918,0.296 3.501,-0.45 1.317,-0.885 0.641,-0.91 0.7,-3.092 -0.264,-3.521 -1.167,-3.872 -1.526,-3.277 -3.745,-5.216"
     id="path139" />
</g>
<g
   id="g140"
   transform="matrix(0,0.98973203,-0.87303,0,862.53351,461.07449)">
  <path
     fill="none"
     stroke="#000000"
     stroke-width="4"
     stroke-linecap="round"
     stroke-linejoin="round"
     d="m -402.55,829.336 -0.893,0.58 0.381,-0.627 0.479,0.029 3.971,-2.3 3.357,-2.449 0.583,0.038 0.795,-1.164 1.659,-1.308 0.858,-1.115 2.686,-1.574 -1.303,0.854 -0.515,-0.311 -2.664,0.32 -4.109,-2.272 -2.323,-2.597 -1.361,-2.2 0.616,-4.537"
     id="path140" />
</g>
<g
   id="g141"
   transform="matrix(0,0.98973203,-0.87303,0,862.53351,461.07449)">
  <path
     fill="none"
     stroke="#000000"
     stroke-width="4"
     stroke-linecap="round"
     stroke-linejoin="round"
     d="m -401.031,751.943 -1.12,0.133 0.303,0.473 3.894,-1.917 1.585,-1.117 12.136,-5.111 2.771,-0.788 12.263,-6.745 1.408,-1.269 4.021,-2.023 -1.291,0.309 0.028,0.361 0.01,-0.808 0.245,-0.048 -0.375,-0.547 -1.077,0.658 -0.241,-0.295 -0.832,-0.021 -2.12,0.723 -0.754,-0.046 -4.112,3.422 -4.89,2.506 -2.618,0.831 -1.413,1.093 -5.813,0.645 -3.485,0.954 -1.947,-0.332 -1.684,0.768 -5.358,0.841 -4.056,0.32 -3.275,-0.71 -1.702,-0.748 -0.762,-0.856 -0.061,-3.713 0.485,-4.301 0.775,-3.912 1.03,-3.034 1.168,-2.446 2.962,-3.429 1.989,0.075 4.565,8.962 1.899,5.198 0.516,2.415 3.247,8.216 0.319,0.208 -0.725,-1.247 -0.224,-5.182"
     id="path141" />
</g>
<g
   id="g142"
   transform="matrix(0,0.98973203,-0.87303,0,862.53351,461.07449)">
  <path
     fill="none"
     stroke="#000000"
     stroke-width="4"
     stroke-linecap="round"
     stroke-linejoin="round"
     d="m -396.143,705.069 0.292,0.109 0.244,-0.799 0.401,0.254 0.901,-0.151 4.536,-1.666 3.795,-1.52 2.018,-1.248 -1.733,0.667"
     id="path142" />
</g>
<g
   id="g143"
   transform="matrix(0,0.98973203,-0.87303,0,862.53351,461.07449)">
  <path
     fill="none"
     stroke="#000000"
     stroke-width="4"
     stroke-linecap="round"
     stroke-linejoin="round"
     d="m -403.187,706.727 -3.681,2.005 -0.091,-0.658 0.103,0.704 0.919,-0.157 0.148,0.38 0.181,-0.922 0.439,0.033"
     id="path143" />
</g>
<g
   id="g144"
   transform="matrix(0,0.98973203,-0.87303,0,862.53351,461.07449)">
  <path
     fill="none"
     stroke="#000000"
     stroke-width="4"
     stroke-linecap="round"
     stroke-linejoin="round"
     d="m -400.234,694.266 -0.408,0.073 0.307,-0.265 -0.16,-0.673 0.861,0.956 0.982,-0.619 7.642,-2.681 4.774,-2.226 5.259,-3.313 1.448,-0.565 2.557,-2.485 1.833,-1.211 2.146,-2.696 1.492,-1 0.457,0.576 0.365,-0.186 0.988,-1.133 0.139,-0.769 0.275,0.053 -1.352,0.094 -2.58,1.878 -2.822,1.225 -3.6,2.296 -1.249,0.366 -4.279,3.077 -4.005,2.022 -2.908,0.548 -3.839,-0.38 -2.543,-1.281 -3.142,-3.013 -2.406,-3.362 -0.415,-1.46 0.974,-3.945 1.71,-2.279 2.847,-2.679 2.512,-1.06 2.348,-0.238 1.61,0.566 1.511,2.054 1.919,4.48 1.561,5.806 0.49,3.692 -0.092,1.787 -0.421,0.667"
     id="path144" />
</g>
<g
   id="g145"
   transform="matrix(0,0.98973203,-0.87303,0,862.53351,461.07449)">
  <path
     fill="none"
     stroke="#000000"
     stroke-width="4"
     stroke-linecap="round"
     stroke-linejoin="round"
     d="m -394.076,655.439 -0.045,-5.092 -0.346,-2.985 -0.572,-2.106 -0.833,-1.493 -1.196,-0.465 -1.476,0.887 -0.201,-0.257 -0.268,0.16 -1.683,2.744 -0.117,2.509 0.48,1.691 1.33,1.473 2.694,1.894 4.636,0.283 2.568,-0.991 1.497,-1.452 0.89,-1.392 0.974,-2.566 0.515,-5.169 -0.251,-2.159 -1.385,-3.689 -2.135,-1.877"
     id="path145" />
</g>
<g
   id="g146"
   transform="matrix(0,0.98973203,-0.87303,0,862.53351,461.07449)">
  <path
     fill="none"
     stroke="#000000"
     stroke-width="4"
     stroke-linecap="round"
     stroke-linejoin="round"
     d="m -371.332,615.786 -0.194,-1.247 -2.589,-5.208 -3.969,-3.109 -4.261,-2.683 -5.227,-2.613 -6.088,-4.093 -5.796,-3.376 -5.09,-2.464 -2.016,0.08 -2.038,-1 -3.417,-0.761 -2.72,0.076 -2.509,0.544 -1.323,-0.488 -1.732,2.424 -0.184,1.692 1.198,2.177 2.156,2.02 5.758,4.139 3.899,1.626 3.07,0.772 8.426,1.187 4.469,-0.288 4.783,-1.111 3.856,-2.265 1.366,-0.469 3.675,-4.486 0.358,-1.258 0.286,0.185 0.024,0.734 0.739,-0.437"
     id="path146" />
</g>
<g
   id="g147"
   transform="matrix(0,0.98973203,-0.87303,0,862.53351,461.07449)">
  <path
     fill="none"
     stroke="#000000"
     stroke-width="4"
     stroke-linecap="round"
     stroke-linejoin="round"
     d="m -384.172,579.001 -0.594,-0.279 -0.414,0.28 0.239,-0.62 1.087,0.156 1.681,-1.225 1.573,-0.458 3.857,-2.451 2.667,-1.136 1.48,-0.298 -1.436,0.954 -0.091,-0.215 -2.289,-0.114 -2.235,0.381"
     id="path147" />
</g>
<g
   id="g148"
   transform="matrix(0,0.98973203,-0.87303,0,862.53351,461.07449)">
  <path
     fill="none"
     stroke="#000000"
     stroke-width="4"
     stroke-linecap="round"
     stroke-linejoin="round"
     d="m -399.476,571.992 -0.852,0.052 0.365,-0.72 0.187,0.971 0.139,-0.47 0.609,-0.189"
     id="path148" />
</g>
<g
   id="g149"
   transform="matrix(0,0.98973203,-0.87303,0,862.53351,461.07449)">
  <path
     fill="none"
     stroke="#000000"
     stroke-width="4"
     stroke-linecap="round"
     stroke-linejoin="round"
     d="m -391.668,561.451 4.024,-1.515 8.69,-6.579 1.659,-0.744 0.568,0.464 0.553,-0.552 -0.139,0.726 -0.398,-0.125 -0.104,-0.618 -0.327,0.463 0.022,-0.46 -1.33,0.698 -2.467,-0.409 -3.746,-2.417 -3.488,-2.834 -0.702,-1.065 1.091,1.353 4.447,-2.825 5.367,-2.061 1.398,-1.439 -0.343,-2.439"
     id="path149" />
</g>
<g
   id="g150"
   transform="matrix(0,0.98973203,-0.87303,0,862.53351,461.07449)">
  <path
     fill="none"
     stroke="#000000"
     stroke-width="4"
     stroke-linecap="round"
     stroke-linejoin="round"
     d="m -389.076,523.844 0.857,-4.826 -0.245,-3.995 -0.739,-3.193 -0.508,-0.445 -0.759,-2.032 -0.73,-0.915 -0.834,-0.341 -0.907,0.464 -2.241,2.419 -0.882,2.512 0.227,3.082 1.011,1.843 4.342,4.899 2.422,1.125 2.254,0.564 1.568,-0.749 1.221,-1.208 0.7,-1.442 0.771,-2.947 0.575,-7.073 -0.235,-5.298 -0.982,-8.551 -1.28,-4.773 -0.255,-0.279 -0.084,0.394 0.548,2.165"
     id="path150" />
</g>
<g
   id="g151"
   transform="matrix(0,0.98973203,-0.87303,0,862.53351,461.07449)">
  <path
     fill="none"
     stroke="#000000"
     stroke-width="4"
     stroke-linecap="round"
     stroke-linejoin="round"
     d="m -354.456,484.566 0.133,0.723 0.448,-0.078 -0.221,-0.344 0.73,-0.731 -0.241,1.126 0.079,-0.585 1.135,4.825 0.585,16.509 0.529,3.801 0.269,6.158 -0.663,15.803 0.246,5.621 1.752,10.942 0.851,20.19 0.092,10.392 -0.466,16.056 -1.203,16.328 -0.671,5.236 -1.459,25.772 -0.461,33.21 0.813,32.667 2.967,57.597 1.174,69.26 3.793,72.309 3.616,50.21 0.743,14.779 2.1,56.708 1.082,19.11 1.486,36.79 0.814,28.67 1.662,35.48 -0.167,23.66 0.314,21.52 0.462,10.59 1.4,21.89 2.562,24.22 3.153,18.96 2.139,7.89"
     id="path151" />
</g>
<metadata
   id="metadata151">
  <rdf:RDF>
    <cc:Work
       rdf:about="">
      <dc:title>Quick sheets</dc:title>
    </cc:Work>
  </rdf:RDF>
</metadata>
</svg>
